<mxfile host="Electron" modified="2023-08-13T18:12:47.018Z" agent="Mozilla/5.0 (Macintosh; Intel Mac OS X 10_15_7) AppleWebKit/537.36 (KHTML, like Gecko) draw.io/21.6.8 Chrome/114.0.5735.289 Electron/25.5.0 Safari/537.36" etag="GA3vBMZAo4BUsyWvM6yc" version="21.6.8" type="device" pages="3">
  <diagram name="old" id="n8uxDiPZgBV-Wp8yqk0C">
    <mxGraphModel dx="801" dy="716" grid="1" gridSize="10" guides="1" tooltips="1" connect="1" arrows="1" fold="1" page="1" pageScale="1" pageWidth="850" pageHeight="1100" math="0" shadow="0">
      <root>
        <mxCell id="0" />
        <mxCell id="1" parent="0" />
        <mxCell id="EouFw2ogtIlf8tk3uUrb-1" value="aero_model_drydep_old" style="rounded=1;whiteSpace=wrap;html=1;align=left;spacingLeft=5;fillColor=#eeeeee;strokeColor=#36393d;" parent="1" vertex="1">
          <mxGeometry x="85" y="210" width="145" height="30" as="geometry" />
        </mxCell>
        <mxCell id="EouFw2ogtIlf8tk3uUrb-2" value="&lt;h1&gt;&lt;/h1&gt;&amp;nbsp; &amp;nbsp;&amp;nbsp;&lt;span style=&quot;font-variant-ligatures: no-common-ligatures; color: rgb(19, 147, 159);&quot; class=&quot;s2&quot;&gt;call&lt;/span&gt;&lt;span style=&quot;font-variant-ligatures: no-common-ligatures;&quot; class=&quot;s1&quot;&gt; outfld( &lt;/span&gt;&lt;span style=&quot;font-variant-ligatures: no-common-ligatures; color: rgb(159, 20, 16);&quot; class=&quot;s3&quot;&gt;&#39;airFV&#39;&lt;/span&gt;&lt;span style=&quot;font-variant-ligatures: no-common-ligatures;&quot; class=&quot;s1&quot;&gt;, fv(:), pcols, lchnk )&lt;/span&gt;&lt;br&gt;&lt;span style=&quot;font-variant-ligatures: no-common-ligatures;&quot; class=&quot;s1&quot;&gt;&amp;nbsp; &amp;nbsp; &lt;/span&gt;&lt;span style=&quot;font-variant-ligatures: no-common-ligatures;&quot; class=&quot;s2&quot;&gt;&lt;font color=&quot;#13939f&quot;&gt;call&lt;/font&gt;&lt;/span&gt;&lt;span style=&quot;font-variant-ligatures: no-common-ligatures;&quot; class=&quot;s1&quot;&gt; outfld( &lt;/span&gt;&lt;span style=&quot;font-variant-ligatures: no-common-ligatures; color: rgb(159, 20, 16);&quot; class=&quot;s3&quot;&gt;&#39;RAM1&#39;&lt;/span&gt;&lt;span style=&quot;font-variant-ligatures: no-common-ligatures;&quot; class=&quot;s1&quot;&gt;, ram1(:), pcols, lchnk )&lt;br&gt;&lt;br&gt;Interstitial:&lt;br&gt;&amp;nbsp; &amp;nbsp;&lt;font color=&quot;#13939f&quot;&gt;call&lt;/font&gt;&lt;span style=&quot;font-variant-ligatures: no-common-ligatures;&quot; class=&quot;s2&quot;&gt; outfld( &lt;/span&gt;&lt;span style=&quot;font-variant-ligatures: no-common-ligatures; color: rgb(19, 147, 159);&quot; class=&quot;s1&quot;&gt;trim&lt;/span&gt;&lt;span style=&quot;font-variant-ligatures: no-common-ligatures;&quot; class=&quot;s2&quot;&gt;(cnst_name(mm))&lt;/span&gt;&lt;span style=&quot;font-variant-ligatures: no-common-ligatures; color: rgb(166, 82, 12);&quot; class=&quot;s3&quot;&gt;//&lt;/span&gt;&lt;span style=&quot;font-variant-ligatures: no-common-ligatures; color: rgb(159, 20, 16);&quot; class=&quot;s4&quot;&gt;&#39;DDV&#39;&lt;/span&gt;&lt;span style=&quot;font-variant-ligatures: no-common-ligatures;&quot; class=&quot;s2&quot;&gt;, pvmzaer(:,&lt;/span&gt;&lt;span style=&quot;font-variant-ligatures: no-common-ligatures; color: rgb(159, 20, 16);&quot; class=&quot;s4&quot;&gt;2&lt;/span&gt;&lt;span style=&quot;font-variant-ligatures: no-common-ligatures;&quot; class=&quot;s2&quot;&gt;:pverp), pcols, lchnk )&lt;br&gt;&lt;span style=&quot;font-variant-ligatures: no-common-ligatures;&quot; class=&quot;s1&quot;&gt;&lt;/span&gt;&lt;span style=&quot;font-variant-ligatures: no-common-ligatures; color: rgb(19, 147, 159);&quot; class=&quot;s2&quot;&gt;&amp;nbsp; &amp;nbsp;call&lt;/span&gt;&lt;span style=&quot;font-variant-ligatures: no-common-ligatures;&quot; class=&quot;s1&quot;&gt; outfld( &lt;/span&gt;&lt;span style=&quot;font-variant-ligatures: no-common-ligatures; color: rgb(19, 147, 159);&quot; class=&quot;s2&quot;&gt;trim&lt;/span&gt;&lt;span style=&quot;font-variant-ligatures: no-common-ligatures;&quot; class=&quot;s1&quot;&gt;(cnst_name(mm))&lt;/span&gt;&lt;span style=&quot;font-variant-ligatures: no-common-ligatures; color: rgb(166, 82, 12);&quot; class=&quot;s3&quot;&gt;//&lt;/span&gt;&lt;span style=&quot;font-variant-ligatures: no-common-ligatures; color: rgb(159, 20, 16);&quot; class=&quot;s4&quot;&gt;&#39;DDF&#39;&lt;/span&gt;&lt;span style=&quot;font-variant-ligatures: no-common-ligatures;&quot; class=&quot;s1&quot;&gt;, sflx, pcols, lchnk)&lt;/span&gt;&lt;br&gt;&lt;span style=&quot;font-variant-ligatures: no-common-ligatures;&quot; class=&quot;s1&quot;&gt;&lt;span class=&quot;Apple-converted-space&quot;&gt;&amp;nbsp;&amp;nbsp; &lt;/span&gt;&lt;/span&gt;&lt;span style=&quot;font-variant-ligatures: no-common-ligatures; color: rgb(19, 147, 159);&quot; class=&quot;s2&quot;&gt;call&lt;/span&gt;&lt;span style=&quot;font-variant-ligatures: no-common-ligatures;&quot; class=&quot;s1&quot;&gt; outfld( &lt;/span&gt;&lt;span style=&quot;font-variant-ligatures: no-common-ligatures; color: rgb(19, 147, 159);&quot; class=&quot;s2&quot;&gt;trim&lt;/span&gt;&lt;span style=&quot;font-variant-ligatures: no-common-ligatures;&quot; class=&quot;s1&quot;&gt;(cnst_name(mm))&lt;/span&gt;&lt;span style=&quot;font-variant-ligatures: no-common-ligatures; color: rgb(166, 82, 12);&quot; class=&quot;s3&quot;&gt;//&lt;/span&gt;&lt;span style=&quot;font-variant-ligatures: no-common-ligatures; color: rgb(159, 20, 16);&quot; class=&quot;s4&quot;&gt;&#39;TBF&#39;&lt;/span&gt;&lt;span style=&quot;font-variant-ligatures: no-common-ligatures;&quot; class=&quot;s1&quot;&gt;, dep_trb, pcols, lchnk )&lt;/span&gt;&lt;br&gt;&lt;span style=&quot;font-variant-ligatures: no-common-ligatures;&quot; class=&quot;s1&quot;&gt;&lt;span class=&quot;Apple-converted-space&quot;&gt;&amp;nbsp;&amp;nbsp; &lt;/span&gt;&lt;/span&gt;&lt;span style=&quot;font-variant-ligatures: no-common-ligatures; color: rgb(19, 147, 159);&quot; class=&quot;s2&quot;&gt;call&lt;/span&gt;&lt;span style=&quot;font-variant-ligatures: no-common-ligatures;&quot; class=&quot;s1&quot;&gt; outfld( &lt;/span&gt;&lt;span style=&quot;font-variant-ligatures: no-common-ligatures; color: rgb(19, 147, 159);&quot; class=&quot;s2&quot;&gt;trim&lt;/span&gt;&lt;span style=&quot;font-variant-ligatures: no-common-ligatures;&quot; class=&quot;s1&quot;&gt;(cnst_name(mm))&lt;/span&gt;&lt;span style=&quot;font-variant-ligatures: no-common-ligatures; color: rgb(166, 82, 12);&quot; class=&quot;s3&quot;&gt;//&lt;/span&gt;&lt;span style=&quot;font-variant-ligatures: no-common-ligatures; color: rgb(159, 20, 16);&quot; class=&quot;s4&quot;&gt;&#39;GVF&#39;&lt;/span&gt;&lt;span style=&quot;font-variant-ligatures: no-common-ligatures;&quot; class=&quot;s1&quot;&gt;, dep_grv, pcols, lchnk )&lt;/span&gt;&lt;br&gt;&lt;span style=&quot;font-variant-ligatures: no-common-ligatures;&quot; class=&quot;s1&quot;&gt;&lt;span class=&quot;Apple-converted-space&quot;&gt;&amp;nbsp;&amp;nbsp; &lt;/span&gt;&lt;/span&gt;&lt;span style=&quot;font-variant-ligatures: no-common-ligatures; color: rgb(19, 147, 159);&quot; class=&quot;s2&quot;&gt;call&lt;/span&gt;&lt;span style=&quot;font-variant-ligatures: no-common-ligatures;&quot; class=&quot;s1&quot;&gt; outfld( &lt;/span&gt;&lt;span style=&quot;font-variant-ligatures: no-common-ligatures; color: rgb(19, 147, 159);&quot; class=&quot;s2&quot;&gt;trim&lt;/span&gt;&lt;span style=&quot;font-variant-ligatures: no-common-ligatures;&quot; class=&quot;s1&quot;&gt;(cnst_name(mm))&lt;/span&gt;&lt;span style=&quot;font-variant-ligatures: no-common-ligatures; color: rgb(166, 82, 12);&quot; class=&quot;s3&quot;&gt;//&lt;/span&gt;&lt;span style=&quot;font-variant-ligatures: no-common-ligatures; color: rgb(159, 20, 16);&quot; class=&quot;s4&quot;&gt;&#39;DTQ&#39;&lt;/span&gt;&lt;span style=&quot;font-variant-ligatures: no-common-ligatures;&quot; class=&quot;s1&quot;&gt;, ptend%q(:,:,mm), pcols, lchnk)&lt;br&gt;&lt;br&gt;Cloud-borne&lt;br&gt;&lt;span style=&quot;font-variant-ligatures: no-common-ligatures;&quot; class=&quot;s1&quot;&gt;&lt;/span&gt;&lt;span style=&quot;font-variant-ligatures: no-common-ligatures; color: rgb(19, 147, 159);&quot; class=&quot;s2&quot;&gt;&amp;nbsp; &amp;nbsp;call&lt;/span&gt;&lt;span style=&quot;font-variant-ligatures: no-common-ligatures;&quot; class=&quot;s1&quot;&gt; outfld( &lt;/span&gt;&lt;span style=&quot;font-variant-ligatures: no-common-ligatures; color: rgb(19, 147, 159);&quot; class=&quot;s2&quot;&gt;trim&lt;/span&gt;&lt;span style=&quot;font-variant-ligatures: no-common-ligatures;&quot; class=&quot;s1&quot;&gt;(cnst_name_cw(mm))&lt;/span&gt;&lt;span style=&quot;font-variant-ligatures: no-common-ligatures; color: rgb(166, 82, 12);&quot; class=&quot;s3&quot;&gt;//&lt;/span&gt;&lt;span style=&quot;font-variant-ligatures: no-common-ligatures; color: rgb(159, 20, 16);&quot; class=&quot;s4&quot;&gt;&#39;DDF&#39;&lt;/span&gt;&lt;span style=&quot;font-variant-ligatures: no-common-ligatures;&quot; class=&quot;s1&quot;&gt;, sflx, pcols, lchnk)&lt;/span&gt;&lt;br&gt;&lt;span style=&quot;font-variant-ligatures: no-common-ligatures;&quot; class=&quot;s1&quot;&gt;&lt;span class=&quot;Apple-converted-space&quot;&gt;&amp;nbsp;&amp;nbsp; &lt;/span&gt;&lt;/span&gt;&lt;span style=&quot;font-variant-ligatures: no-common-ligatures; color: rgb(19, 147, 159);&quot; class=&quot;s2&quot;&gt;call&lt;/span&gt;&lt;span style=&quot;font-variant-ligatures: no-common-ligatures;&quot; class=&quot;s1&quot;&gt; outfld( &lt;/span&gt;&lt;span style=&quot;font-variant-ligatures: no-common-ligatures; color: rgb(19, 147, 159);&quot; class=&quot;s2&quot;&gt;trim&lt;/span&gt;&lt;span style=&quot;font-variant-ligatures: no-common-ligatures;&quot; class=&quot;s1&quot;&gt;(cnst_name_cw(mm))&lt;/span&gt;&lt;span style=&quot;font-variant-ligatures: no-common-ligatures; color: rgb(166, 82, 12);&quot; class=&quot;s3&quot;&gt;//&lt;/span&gt;&lt;span style=&quot;font-variant-ligatures: no-common-ligatures; color: rgb(159, 20, 16);&quot; class=&quot;s4&quot;&gt;&#39;TBF&#39;&lt;/span&gt;&lt;span style=&quot;font-variant-ligatures: no-common-ligatures;&quot; class=&quot;s1&quot;&gt;, dep_trb, pcols, lchnk )&lt;/span&gt;&lt;br&gt;&lt;span style=&quot;font-variant-ligatures: no-common-ligatures;&quot; class=&quot;s1&quot;&gt;&lt;span class=&quot;Apple-converted-space&quot;&gt;&amp;nbsp;&amp;nbsp; &lt;/span&gt;&lt;/span&gt;&lt;span style=&quot;font-variant-ligatures: no-common-ligatures; color: rgb(19, 147, 159);&quot; class=&quot;s2&quot;&gt;call&lt;/span&gt;&lt;span style=&quot;font-variant-ligatures: no-common-ligatures;&quot; class=&quot;s1&quot;&gt; outfld( &lt;/span&gt;&lt;span style=&quot;font-variant-ligatures: no-common-ligatures; color: rgb(19, 147, 159);&quot; class=&quot;s2&quot;&gt;trim&lt;/span&gt;&lt;span style=&quot;font-variant-ligatures: no-common-ligatures;&quot; class=&quot;s1&quot;&gt;(cnst_name_cw(mm))&lt;/span&gt;&lt;span style=&quot;font-variant-ligatures: no-common-ligatures; color: rgb(166, 82, 12);&quot; class=&quot;s3&quot;&gt;//&lt;/span&gt;&lt;span style=&quot;font-variant-ligatures: no-common-ligatures; color: rgb(159, 20, 16);&quot; class=&quot;s4&quot;&gt;&#39;GVF&#39;&lt;/span&gt;&lt;span style=&quot;font-variant-ligatures: no-common-ligatures;&quot; class=&quot;s1&quot;&gt;, dep_grv, pcols, lchnk )&lt;/span&gt;&lt;/span&gt;&lt;/span&gt;&lt;/span&gt;" style="text;html=1;strokeColor=none;fillColor=none;spacing=5;spacingTop=-20;whiteSpace=wrap;overflow=hidden;rounded=0;align=left;spacingLeft=5;" parent="1" vertex="1">
          <mxGeometry x="270" y="350" width="530" height="220" as="geometry" />
        </mxCell>
        <mxCell id="EouFw2ogtIlf8tk3uUrb-4" value="modal_aero_depvel_part" style="rounded=1;whiteSpace=wrap;html=1;align=left;spacingLeft=5;" parent="1" vertex="1">
          <mxGeometry x="280" y="190" width="150" height="30" as="geometry" />
        </mxCell>
        <mxCell id="EouFw2ogtIlf8tk3uUrb-5" value="dust_sediment_tend" style="rounded=1;whiteSpace=wrap;html=1;align=left;spacingLeft=5;" parent="1" vertex="1">
          <mxGeometry x="280" y="240" width="130" height="30" as="geometry" />
        </mxCell>
        <mxCell id="EouFw2ogtIlf8tk3uUrb-6" value="set_srf_drydep" style="rounded=1;whiteSpace=wrap;html=1;align=left;spacingLeft=5;" parent="1" vertex="1">
          <mxGeometry x="280" y="290" width="90" height="30" as="geometry" />
        </mxCell>
        <mxCell id="EouFw2ogtIlf8tk3uUrb-8" value="" style="endArrow=classic;html=1;rounded=0;exitX=1;exitY=0.5;exitDx=0;exitDy=0;entryX=0;entryY=0.5;entryDx=0;entryDy=0;align=left;spacingLeft=5;" parent="1" source="EouFw2ogtIlf8tk3uUrb-1" target="EouFw2ogtIlf8tk3uUrb-5" edge="1">
          <mxGeometry width="50" height="50" relative="1" as="geometry">
            <mxPoint x="420" y="480" as="sourcePoint" />
            <mxPoint x="470" y="430" as="targetPoint" />
          </mxGeometry>
        </mxCell>
        <mxCell id="BPsXrtuJ-0ei2di38DSD-8" value="calram" style="rounded=1;whiteSpace=wrap;html=1;align=left;spacingLeft=5;" parent="1" vertex="1">
          <mxGeometry x="280" y="140" width="60" height="30" as="geometry" />
        </mxCell>
        <mxCell id="BPsXrtuJ-0ei2di38DSD-11" value="" style="endArrow=classic;html=1;rounded=0;exitX=1;exitY=0.5;exitDx=0;exitDy=0;entryX=0;entryY=0.5;entryDx=0;entryDy=0;align=left;spacingLeft=5;" parent="1" source="EouFw2ogtIlf8tk3uUrb-1" target="BPsXrtuJ-0ei2di38DSD-8" edge="1">
          <mxGeometry width="50" height="50" relative="1" as="geometry">
            <mxPoint x="240" y="240" as="sourcePoint" />
            <mxPoint x="290" y="270" as="targetPoint" />
          </mxGeometry>
        </mxCell>
        <mxCell id="BPsXrtuJ-0ei2di38DSD-12" value="" style="endArrow=classic;html=1;rounded=0;exitX=1;exitY=0.5;exitDx=0;exitDy=0;entryX=0;entryY=0.5;entryDx=0;entryDy=0;align=left;spacingLeft=5;" parent="1" source="EouFw2ogtIlf8tk3uUrb-1" target="EouFw2ogtIlf8tk3uUrb-4" edge="1">
          <mxGeometry width="50" height="50" relative="1" as="geometry">
            <mxPoint x="240" y="240" as="sourcePoint" />
            <mxPoint x="290" y="170" as="targetPoint" />
          </mxGeometry>
        </mxCell>
        <mxCell id="BPsXrtuJ-0ei2di38DSD-13" value="" style="endArrow=classic;html=1;rounded=0;exitX=1;exitY=0.5;exitDx=0;exitDy=0;entryX=0;entryY=0.5;entryDx=0;entryDy=0;align=left;spacingLeft=5;" parent="1" source="EouFw2ogtIlf8tk3uUrb-1" target="EouFw2ogtIlf8tk3uUrb-6" edge="1">
          <mxGeometry width="50" height="50" relative="1" as="geometry">
            <mxPoint x="240" y="240" as="sourcePoint" />
            <mxPoint x="290" y="220" as="targetPoint" />
          </mxGeometry>
        </mxCell>
        <mxCell id="SeL8pMW5YcijtT1Yl2Bl-1" value="&lt;span class=&quot;s1&quot;&gt;Dry deposition code is in src/chemistry/modal_aero/aero_model.F90&lt;/span&gt;" style="text;whiteSpace=wrap;html=1;align=left;spacingLeft=5;" parent="1" vertex="1">
          <mxGeometry x="190" y="22" width="435" height="30" as="geometry" />
        </mxCell>
        <mxCell id="p-Wz0Aac88sb2pdSRvZG-1" value="&lt;span class=&quot;s1&quot;&gt;src/chemistry/&lt;/span&gt;aerosol/drydep_mod.F90" style="text;whiteSpace=wrap;html=1;align=left;spacingLeft=5;" parent="1" vertex="1">
          <mxGeometry x="443" y="140" width="240" height="30" as="geometry" />
        </mxCell>
        <mxCell id="p-Wz0Aac88sb2pdSRvZG-2" value="&lt;span class=&quot;s1&quot;&gt;src/chemistry/&lt;/span&gt;aerosol/dust_sediment_mod.F90" style="text;whiteSpace=wrap;html=1;align=left;spacingLeft=5;" parent="1" vertex="1">
          <mxGeometry x="442" y="240" width="260" height="30" as="geometry" />
        </mxCell>
        <mxCell id="p-Wz0Aac88sb2pdSRvZG-3" value="&lt;span class=&quot;s1&quot;&gt;src/chemistry/modal_aero/aero_model.F90&lt;/span&gt;" style="text;whiteSpace=wrap;html=1;align=left;spacingLeft=5;" parent="1" vertex="1">
          <mxGeometry x="442" y="190" width="240" height="30" as="geometry" />
        </mxCell>
        <mxCell id="p-Wz0Aac88sb2pdSRvZG-4" value="&lt;span class=&quot;s1&quot;&gt;src/chemistry/&lt;/span&gt;utils/modal_aero_deposition.F90" style="text;whiteSpace=wrap;html=1;align=left;spacingLeft=5;" parent="1" vertex="1">
          <mxGeometry x="442" y="290" width="260" height="30" as="geometry" />
        </mxCell>
        <mxCell id="D4iSO-U_DjJ38wY_iuPP-1" value="Old code before refactoring" style="text;html=1;strokeColor=#b85450;fillColor=#f8cecc;align=left;verticalAlign=middle;whiteSpace=wrap;rounded=0;spacingLeft=5;" parent="1" vertex="1">
          <mxGeometry x="20" y="20" width="160" height="30" as="geometry" />
        </mxCell>
        <mxCell id="Hdw0H2JxcKfciIX4OoCx-1" value="physics_update" style="rounded=1;whiteSpace=wrap;html=1;align=left;spacingLeft=5;fillColor=#eeeeee;strokeColor=#36393d;" parent="1" vertex="1">
          <mxGeometry x="85" y="240" width="95" height="30" as="geometry" />
        </mxCell>
        <mxCell id="HY-QTEBN3LYng6qnmTHf-2" value="tphys&lt;font color=&quot;#ff0000&quot;&gt;a&lt;/font&gt;c" style="swimlane;horizontal=0;whiteSpace=wrap;html=1;fillColor=#e1d5e7;strokeColor=#9673a6;strokeWidth=2;" parent="1" vertex="1">
          <mxGeometry x="21" y="80" width="808" height="530" as="geometry">
            <mxRectangle x="12" y="96" width="40" height="80" as="alternateBounds" />
          </mxGeometry>
        </mxCell>
      </root>
    </mxGraphModel>
  </diagram>
  <diagram id="TAMESDnmUh12i1QlwmzV" name="refactored">
    <mxGraphModel dx="801" dy="716" grid="1" gridSize="10" guides="1" tooltips="1" connect="1" arrows="1" fold="1" page="1" pageScale="1" pageWidth="850" pageHeight="1100" math="0" shadow="0">
      <root>
        <mxCell id="0" />
        <mxCell id="1" parent="0" />
        <mxCell id="MTkyEazf3_cOql3VceXm-1" value="&lt;span class=&quot;s1&quot;&gt;Main subroutine of dry deposition is in src/chemistry/modal_aero/modal_aero_drydep_refac.F90&lt;br&gt;Additional subroutines can be found in module files in src/chemistry/modal_aero/&lt;br&gt;&lt;/span&gt;" style="text;whiteSpace=wrap;html=1;align=left;spacingLeft=4;" parent="1" vertex="1">
          <mxGeometry x="195" y="16" width="590" height="40" as="geometry" />
        </mxCell>
        <mxCell id="WtqDtbnd01gJPg_VoSgC-1" value="New code after refactoring" style="text;html=1;strokeColor=#6c8ebf;fillColor=#dae8fc;align=left;verticalAlign=middle;whiteSpace=wrap;rounded=0;spacingLeft=5;" parent="1" vertex="1">
          <mxGeometry x="12" y="20" width="160" height="30" as="geometry" />
        </mxCell>
        <mxCell id="eu7nGwEuYAv5mt5INT4q-1" value="tphys&lt;font color=&quot;#ff0000&quot;&gt;a&lt;/font&gt;c" style="swimlane;horizontal=0;whiteSpace=wrap;html=1;fillColor=#e1d5e7;strokeColor=#9673a6;strokeWidth=2;" parent="1" vertex="1">
          <mxGeometry x="21" y="80" width="1079" height="730" as="geometry">
            <mxRectangle x="12" y="96" width="40" height="80" as="alternateBounds" />
          </mxGeometry>
        </mxCell>
        <mxCell id="rqjfGU9eP3pIPMUwoF6y-1" value="aero_model_drydep_refac" style="rounded=1;whiteSpace=wrap;html=1;align=left;spacingLeft=4;fillColor=#eeeeee;strokeColor=#36393d;" parent="eu7nGwEuYAv5mt5INT4q-1" vertex="1">
          <mxGeometry x="69" y="117" width="150" height="35" as="geometry" />
        </mxCell>
        <mxCell id="rqjfGU9eP3pIPMUwoF6y-2" value="aero_model_drydep_cloudborne" style="rounded=1;whiteSpace=wrap;html=1;align=left;spacingLeft=4;" parent="eu7nGwEuYAv5mt5INT4q-1" vertex="1">
          <mxGeometry x="279" y="195" width="190" height="27" as="geometry" />
        </mxCell>
        <mxCell id="rqjfGU9eP3pIPMUwoF6y-3" value="aero_model_drydep_interstitial" style="rounded=1;whiteSpace=wrap;html=1;align=left;spacingLeft=4;" parent="eu7nGwEuYAv5mt5INT4q-1" vertex="1">
          <mxGeometry x="279" y="452" width="190" height="30" as="geometry" />
        </mxCell>
        <mxCell id="rqjfGU9eP3pIPMUwoF6y-4" value="set_srf_drydep" style="rounded=1;whiteSpace=wrap;html=1;align=left;spacingLeft=4;" parent="eu7nGwEuYAv5mt5INT4q-1" vertex="1">
          <mxGeometry x="279" y="652" width="100" height="35" as="geometry" />
        </mxCell>
        <mxCell id="rqjfGU9eP3pIPMUwoF6y-5" value="" style="endArrow=classic;html=1;rounded=0;exitX=1;exitY=0.5;exitDx=0;exitDy=0;entryX=0;entryY=0.5;entryDx=0;entryDy=0;align=left;spacingLeft=4;" parent="eu7nGwEuYAv5mt5INT4q-1" source="rqjfGU9eP3pIPMUwoF6y-1" target="rqjfGU9eP3pIPMUwoF6y-3" edge="1">
          <mxGeometry width="50" height="50" relative="1" as="geometry">
            <mxPoint x="509" y="387" as="sourcePoint" />
            <mxPoint x="559" y="337" as="targetPoint" />
          </mxGeometry>
        </mxCell>
        <mxCell id="rqjfGU9eP3pIPMUwoF6y-6" value="get_gridcell_ram1_fricvel" style="rounded=1;whiteSpace=wrap;html=1;align=left;spacingLeft=4;" parent="eu7nGwEuYAv5mt5INT4q-1" vertex="1">
          <mxGeometry x="289" y="47" width="150" height="25" as="geometry" />
        </mxCell>
        <mxCell id="rqjfGU9eP3pIPMUwoF6y-7" value="" style="endArrow=classic;html=1;rounded=0;exitX=1;exitY=0.5;exitDx=0;exitDy=0;entryX=0;entryY=0.5;entryDx=0;entryDy=0;align=left;spacingLeft=4;" parent="eu7nGwEuYAv5mt5INT4q-1" source="rqjfGU9eP3pIPMUwoF6y-1" target="rqjfGU9eP3pIPMUwoF6y-6" edge="1">
          <mxGeometry width="50" height="50" relative="1" as="geometry">
            <mxPoint x="329" y="147" as="sourcePoint" />
            <mxPoint x="379" y="177" as="targetPoint" />
          </mxGeometry>
        </mxCell>
        <mxCell id="rqjfGU9eP3pIPMUwoF6y-8" value="" style="endArrow=classic;html=1;rounded=0;exitX=1;exitY=0.5;exitDx=0;exitDy=0;entryX=0;entryY=0.5;entryDx=0;entryDy=0;align=left;spacingLeft=4;" parent="eu7nGwEuYAv5mt5INT4q-1" source="rqjfGU9eP3pIPMUwoF6y-1" target="rqjfGU9eP3pIPMUwoF6y-2" edge="1">
          <mxGeometry width="50" height="50" relative="1" as="geometry">
            <mxPoint x="329" y="147" as="sourcePoint" />
            <mxPoint x="379" y="77" as="targetPoint" />
          </mxGeometry>
        </mxCell>
        <mxCell id="rqjfGU9eP3pIPMUwoF6y-9" value="" style="endArrow=classic;html=1;rounded=0;exitX=1;exitY=0.5;exitDx=0;exitDy=0;entryX=0;entryY=0.5;entryDx=0;entryDy=0;align=left;spacingLeft=4;" parent="eu7nGwEuYAv5mt5INT4q-1" source="rqjfGU9eP3pIPMUwoF6y-1" target="rqjfGU9eP3pIPMUwoF6y-4" edge="1">
          <mxGeometry width="50" height="50" relative="1" as="geometry">
            <mxPoint x="329" y="147" as="sourcePoint" />
            <mxPoint x="379" y="127" as="targetPoint" />
          </mxGeometry>
        </mxCell>
        <mxCell id="MTkyEazf3_cOql3VceXm-3" value="calc_ram" style="rounded=1;whiteSpace=wrap;html=1;align=left;spacingLeft=4;" parent="eu7nGwEuYAv5mt5INT4q-1" vertex="1">
          <mxGeometry x="529" y="67" width="60" height="30" as="geometry" />
        </mxCell>
        <mxCell id="2BGIuDphDTFcuaNrjflc-1" value="" style="endArrow=classic;html=1;rounded=0;exitX=1;exitY=0.5;exitDx=0;exitDy=0;entryX=0;entryY=0.5;entryDx=0;entryDy=0;align=left;spacingLeft=4;" parent="eu7nGwEuYAv5mt5INT4q-1" source="rqjfGU9eP3pIPMUwoF6y-6" target="MTkyEazf3_cOql3VceXm-2" edge="1">
          <mxGeometry width="50" height="50" relative="1" as="geometry">
            <mxPoint x="559" y="67" as="sourcePoint" />
            <mxPoint x="529" y="47" as="targetPoint" />
          </mxGeometry>
        </mxCell>
        <mxCell id="2BGIuDphDTFcuaNrjflc-2" value="" style="endArrow=classic;html=1;rounded=0;exitX=1;exitY=0.5;exitDx=0;exitDy=0;entryX=0;entryY=0.5;entryDx=0;entryDy=0;align=left;spacingLeft=4;" parent="eu7nGwEuYAv5mt5INT4q-1" source="rqjfGU9eP3pIPMUwoF6y-6" target="MTkyEazf3_cOql3VceXm-3" edge="1">
          <mxGeometry width="50" height="50" relative="1" as="geometry">
            <mxPoint x="569" y="77" as="sourcePoint" />
            <mxPoint x="589" y="52" as="targetPoint" />
          </mxGeometry>
        </mxCell>
        <mxCell id="sN5ErgYOu7oWftuZLYk1-1" value="&lt;h1&gt;&lt;/h1&gt;&amp;nbsp; &amp;nbsp;&amp;nbsp;&lt;span style=&quot;font-variant-ligatures: no-common-ligatures; color: rgb(19, 147, 159);&quot; class=&quot;s2&quot;&gt;call&lt;/span&gt;&lt;span style=&quot;font-variant-ligatures: no-common-ligatures;&quot; class=&quot;s1&quot;&gt; outfld( &lt;/span&gt;&lt;span style=&quot;font-variant-ligatures: no-common-ligatures; color: rgb(159, 20, 16);&quot; class=&quot;s3&quot;&gt;&#39;airFV&#39;&lt;/span&gt;&lt;span style=&quot;font-variant-ligatures: no-common-ligatures;&quot; class=&quot;s1&quot;&gt;, fv(:), pcols, lchnk )&lt;/span&gt;&lt;br&gt;&lt;span style=&quot;font-variant-ligatures: no-common-ligatures;&quot; class=&quot;s1&quot;&gt;&amp;nbsp; &amp;nbsp; &lt;/span&gt;&lt;span style=&quot;font-variant-ligatures: no-common-ligatures;&quot; class=&quot;s2&quot;&gt;&lt;font color=&quot;#13939f&quot;&gt;call&lt;/font&gt;&lt;/span&gt;&lt;span style=&quot;font-variant-ligatures: no-common-ligatures;&quot; class=&quot;s1&quot;&gt; outfld( &lt;/span&gt;&lt;span style=&quot;font-variant-ligatures: no-common-ligatures; color: rgb(159, 20, 16);&quot; class=&quot;s3&quot;&gt;&#39;RAM1&#39;&lt;/span&gt;&lt;span style=&quot;font-variant-ligatures: no-common-ligatures;&quot; class=&quot;s1&quot;&gt;, ram1(:), pcols, lchnk )&lt;br&gt;&lt;br&gt;&lt;br&gt;&lt;/span&gt;" style="text;html=1;strokeColor=none;fillColor=none;spacing=5;spacingTop=-20;whiteSpace=wrap;overflow=hidden;rounded=0;align=left;spacingLeft=4;" parent="eu7nGwEuYAv5mt5INT4q-1" vertex="1">
          <mxGeometry x="269" y="92" width="260" height="50" as="geometry" />
        </mxCell>
        <mxCell id="sN5ErgYOu7oWftuZLYk1-2" value="modal_aero_depvel_part" style="rounded=1;whiteSpace=wrap;html=1;align=left;spacingLeft=4;" parent="eu7nGwEuYAv5mt5INT4q-1" vertex="1">
          <mxGeometry x="519" y="172" width="150" height="20" as="geometry" />
        </mxCell>
        <mxCell id="sN5ErgYOu7oWftuZLYk1-3" value="sedimentation_solver_for_1_tracer" style="rounded=1;whiteSpace=wrap;html=1;align=left;spacingLeft=4;" parent="eu7nGwEuYAv5mt5INT4q-1" vertex="1">
          <mxGeometry x="519" y="215" width="200" height="20" as="geometry" />
        </mxCell>
        <mxCell id="sN5ErgYOu7oWftuZLYk1-4" value="drydep_diags_for_1_tracer" style="rounded=1;whiteSpace=wrap;html=1;align=left;spacingLeft=4;" parent="eu7nGwEuYAv5mt5INT4q-1" vertex="1">
          <mxGeometry x="519" y="242" width="160" height="20" as="geometry" />
        </mxCell>
        <mxCell id="sN5ErgYOu7oWftuZLYk1-6" value="" style="endArrow=classic;html=1;rounded=0;exitX=1;exitY=0.5;exitDx=0;exitDy=0;entryX=0;entryY=0.5;entryDx=0;entryDy=0;align=left;spacingLeft=4;" parent="eu7nGwEuYAv5mt5INT4q-1" source="rqjfGU9eP3pIPMUwoF6y-2" target="sN5ErgYOu7oWftuZLYk1-2" edge="1">
          <mxGeometry width="50" height="50" relative="1" as="geometry">
            <mxPoint x="469" y="194.5" as="sourcePoint" />
            <mxPoint x="519" y="174.5" as="targetPoint" />
          </mxGeometry>
        </mxCell>
        <mxCell id="sN5ErgYOu7oWftuZLYk1-7" value="" style="endArrow=classic;html=1;rounded=0;exitX=1;exitY=0.5;exitDx=0;exitDy=0;entryX=0;entryY=0.5;entryDx=0;entryDy=0;align=left;spacingLeft=4;" parent="eu7nGwEuYAv5mt5INT4q-1" source="rqjfGU9eP3pIPMUwoF6y-2" target="sN5ErgYOu7oWftuZLYk1-4" edge="1">
          <mxGeometry width="50" height="50" relative="1" as="geometry">
            <mxPoint x="469" y="194.5" as="sourcePoint" />
            <mxPoint x="519" y="209.5" as="targetPoint" />
          </mxGeometry>
        </mxCell>
        <mxCell id="sN5ErgYOu7oWftuZLYk1-8" value="" style="endArrow=classic;html=1;rounded=0;entryX=0;entryY=0.5;entryDx=0;entryDy=0;exitX=1;exitY=0.5;exitDx=0;exitDy=0;align=left;spacingLeft=4;" parent="eu7nGwEuYAv5mt5INT4q-1" source="rqjfGU9eP3pIPMUwoF6y-2" target="sN5ErgYOu7oWftuZLYk1-3" edge="1">
          <mxGeometry width="50" height="50" relative="1" as="geometry">
            <mxPoint x="469" y="192" as="sourcePoint" />
            <mxPoint x="529" y="192" as="targetPoint" />
          </mxGeometry>
        </mxCell>
        <mxCell id="_SYk_Dk3S1CjQSJ1opBK-1" value="modal_aero_gravit_settling_velocity" style="rounded=1;whiteSpace=wrap;html=1;align=left;spacingLeft=4;" parent="eu7nGwEuYAv5mt5INT4q-1" vertex="1">
          <mxGeometry x="709" y="152" width="210" height="20" as="geometry" />
        </mxCell>
        <mxCell id="_SYk_Dk3S1CjQSJ1opBK-3" value="modal_aero_turb_drydep_velocity" style="rounded=1;whiteSpace=wrap;html=1;align=left;spacingLeft=4;" parent="eu7nGwEuYAv5mt5INT4q-1" vertex="1">
          <mxGeometry x="709" y="175" width="210" height="20" as="geometry" />
        </mxCell>
        <mxCell id="_SYk_Dk3S1CjQSJ1opBK-4" value="" style="endArrow=classic;html=1;rounded=0;exitX=1;exitY=0.5;exitDx=0;exitDy=0;entryX=0;entryY=0.75;entryDx=0;entryDy=0;align=left;spacingLeft=4;" parent="eu7nGwEuYAv5mt5INT4q-1" source="sN5ErgYOu7oWftuZLYk1-2" target="_SYk_Dk3S1CjQSJ1opBK-1" edge="1">
          <mxGeometry width="50" height="50" relative="1" as="geometry">
            <mxPoint x="479" y="204.5" as="sourcePoint" />
            <mxPoint x="529" y="192" as="targetPoint" />
          </mxGeometry>
        </mxCell>
        <mxCell id="_SYk_Dk3S1CjQSJ1opBK-5" value="" style="endArrow=classic;html=1;rounded=0;exitX=1;exitY=0.5;exitDx=0;exitDy=0;entryX=0;entryY=0.5;entryDx=0;entryDy=0;align=left;spacingLeft=4;" parent="eu7nGwEuYAv5mt5INT4q-1" source="sN5ErgYOu7oWftuZLYk1-2" target="_SYk_Dk3S1CjQSJ1opBK-3" edge="1">
          <mxGeometry width="50" height="50" relative="1" as="geometry">
            <mxPoint x="679" y="192" as="sourcePoint" />
            <mxPoint x="719" y="177" as="targetPoint" />
          </mxGeometry>
        </mxCell>
        <mxCell id="qMlvXc1oTAESJQ40dyFE-1" value="modal_aero_depvel_part" style="rounded=1;whiteSpace=wrap;html=1;align=left;spacingLeft=4;" parent="eu7nGwEuYAv5mt5INT4q-1" vertex="1">
          <mxGeometry x="519" y="382" width="150" height="20" as="geometry" />
        </mxCell>
        <mxCell id="qMlvXc1oTAESJQ40dyFE-2" value="" style="endArrow=classic;html=1;rounded=0;exitX=1;exitY=0.5;exitDx=0;exitDy=0;entryX=0;entryY=0.5;entryDx=0;entryDy=0;align=left;spacingLeft=4;" parent="eu7nGwEuYAv5mt5INT4q-1" source="rqjfGU9eP3pIPMUwoF6y-3" target="qMlvXc1oTAESJQ40dyFE-1" edge="1">
          <mxGeometry width="50" height="50" relative="1" as="geometry">
            <mxPoint x="469" y="425" as="sourcePoint" />
            <mxPoint x="519" y="384.5" as="targetPoint" />
          </mxGeometry>
        </mxCell>
        <mxCell id="qMlvXc1oTAESJQ40dyFE-3" value="modal_aero_gravit_settling_velocity" style="rounded=1;whiteSpace=wrap;html=1;align=left;spacingLeft=4;" parent="eu7nGwEuYAv5mt5INT4q-1" vertex="1">
          <mxGeometry x="709" y="362" width="210" height="20" as="geometry" />
        </mxCell>
        <mxCell id="qMlvXc1oTAESJQ40dyFE-4" value="modal_aero_turb_drydep_velocity" style="rounded=1;whiteSpace=wrap;html=1;align=left;spacingLeft=4;" parent="eu7nGwEuYAv5mt5INT4q-1" vertex="1">
          <mxGeometry x="709" y="385" width="210" height="20" as="geometry" />
        </mxCell>
        <mxCell id="qMlvXc1oTAESJQ40dyFE-5" value="" style="endArrow=classic;html=1;rounded=0;exitX=1;exitY=0.5;exitDx=0;exitDy=0;entryX=0;entryY=0.75;entryDx=0;entryDy=0;align=left;spacingLeft=4;" parent="eu7nGwEuYAv5mt5INT4q-1" source="qMlvXc1oTAESJQ40dyFE-1" target="qMlvXc1oTAESJQ40dyFE-3" edge="1">
          <mxGeometry width="50" height="50" relative="1" as="geometry">
            <mxPoint x="479" y="414.5" as="sourcePoint" />
            <mxPoint x="529" y="402" as="targetPoint" />
          </mxGeometry>
        </mxCell>
        <mxCell id="qMlvXc1oTAESJQ40dyFE-6" value="" style="endArrow=classic;html=1;rounded=0;exitX=1;exitY=0.5;exitDx=0;exitDy=0;entryX=0;entryY=0.5;entryDx=0;entryDy=0;align=left;spacingLeft=4;" parent="eu7nGwEuYAv5mt5INT4q-1" source="qMlvXc1oTAESJQ40dyFE-1" target="qMlvXc1oTAESJQ40dyFE-4" edge="1">
          <mxGeometry width="50" height="50" relative="1" as="geometry">
            <mxPoint x="679" y="402" as="sourcePoint" />
            <mxPoint x="719" y="387" as="targetPoint" />
          </mxGeometry>
        </mxCell>
        <mxCell id="qMlvXc1oTAESJQ40dyFE-8" value="&lt;h1&gt;&lt;/h1&gt;&amp;nbsp; &amp;nbsp; &amp;nbsp; &amp;nbsp;&lt;span style=&quot;font-variant-ligatures: no-common-ligatures; color: rgb(193, 101, 28);&quot; class=&quot;s2&quot;&gt;write&lt;/span&gt;&lt;span style=&quot;font-variant-ligatures: no-common-ligatures;&quot; class=&quot;s1&quot;&gt;(str,&lt;/span&gt;&lt;span style=&quot;font-variant-ligatures: no-common-ligatures; color: rgb(180, 36, 25);&quot; class=&quot;s3&quot;&gt;&#39;(i0)&#39;&lt;/span&gt;&lt;span style=&quot;font-variant-ligatures: no-common-ligatures;&quot; class=&quot;s1&quot;&gt;) imode&lt;/span&gt;&lt;br&gt;&lt;span style=&quot;font-variant-ligatures: no-common-ligatures;&quot; class=&quot;s1&quot;&gt;&amp;nbsp;&amp;nbsp; &amp;nbsp; &amp;nbsp; &lt;/span&gt;&lt;span style=&quot;font-variant-ligatures: no-common-ligatures; color: rgb(46, 174, 187);&quot; class=&quot;s4&quot;&gt;call&lt;/span&gt;&lt;span style=&quot;font-variant-ligatures: no-common-ligatures;&quot; class=&quot;s1&quot;&gt; outfld( &lt;/span&gt;&lt;span style=&quot;font-variant-ligatures: no-common-ligatures; color: rgb(180, 36, 25);&quot; class=&quot;s3&quot;&gt;&#39;num_a&#39;&lt;/span&gt;&lt;span style=&quot;font-variant-ligatures: no-common-ligatures; color: rgb(193, 101, 28);&quot; class=&quot;s2&quot;&gt;//&lt;/span&gt;&lt;span style=&quot;font-variant-ligatures: no-common-ligatures; color: rgb(46, 174, 187);&quot; class=&quot;s4&quot;&gt;trim&lt;/span&gt;&lt;span style=&quot;font-variant-ligatures: no-common-ligatures;&quot; class=&quot;s1&quot;&gt;(&lt;/span&gt;&lt;span style=&quot;font-variant-ligatures: no-common-ligatures; color: rgb(46, 174, 187);&quot; class=&quot;s4&quot;&gt;adjustl&lt;/span&gt;&lt;span style=&quot;font-variant-ligatures: no-common-ligatures;&quot; class=&quot;s1&quot;&gt;(str))&lt;/span&gt;&lt;span style=&quot;font-variant-ligatures: no-common-ligatures; color: rgb(193, 101, 28);&quot; class=&quot;s2&quot;&gt;//&lt;/span&gt;&lt;span style=&quot;font-variant-ligatures: no-common-ligatures; color: rgb(180, 36, 25);&quot; class=&quot;s3&quot;&gt;&#39;_GVV&#39;&lt;/span&gt;&lt;span style=&quot;font-variant-ligatures: no-common-ligatures;&quot; class=&quot;s1&quot;&gt;, vlc_grv(:,:,&lt;/span&gt;&lt;span style=&quot;font-variant-ligatures: no-common-ligatures; color: rgb(180, 36, 25);&quot; class=&quot;s3&quot;&gt;1&lt;/span&gt;&lt;span style=&quot;font-variant-ligatures: no-common-ligatures;&quot; class=&quot;s1&quot;&gt;), pcols, lchnk )&lt;/span&gt;&lt;br&gt;&lt;span style=&quot;font-variant-ligatures: no-common-ligatures;&quot; class=&quot;s1&quot;&gt;&amp;nbsp;&amp;nbsp; &amp;nbsp; &amp;nbsp; &lt;/span&gt;&lt;span style=&quot;font-variant-ligatures: no-common-ligatures; color: rgb(46, 174, 187);&quot; class=&quot;s4&quot;&gt;call&lt;/span&gt;&lt;span style=&quot;font-variant-ligatures: no-common-ligatures;&quot; class=&quot;s1&quot;&gt; outfld( &lt;/span&gt;&lt;span style=&quot;font-variant-ligatures: no-common-ligatures; color: rgb(180, 36, 25);&quot; class=&quot;s3&quot;&gt;&#39;mss_a&#39;&lt;/span&gt;&lt;span style=&quot;font-variant-ligatures: no-common-ligatures; color: rgb(193, 101, 28);&quot; class=&quot;s2&quot;&gt;//&lt;/span&gt;&lt;span style=&quot;font-variant-ligatures: no-common-ligatures; color: rgb(46, 174, 187);&quot; class=&quot;s4&quot;&gt;trim&lt;/span&gt;&lt;span style=&quot;font-variant-ligatures: no-common-ligatures;&quot; class=&quot;s1&quot;&gt;(&lt;/span&gt;&lt;span style=&quot;font-variant-ligatures: no-common-ligatures; color: rgb(46, 174, 187);&quot; class=&quot;s4&quot;&gt;adjustl&lt;/span&gt;&lt;span style=&quot;font-variant-ligatures: no-common-ligatures;&quot; class=&quot;s1&quot;&gt;(str))&lt;/span&gt;&lt;span style=&quot;font-variant-ligatures: no-common-ligatures; color: rgb(193, 101, 28);&quot; class=&quot;s2&quot;&gt;//&lt;/span&gt;&lt;span style=&quot;font-variant-ligatures: no-common-ligatures; color: rgb(180, 36, 25);&quot; class=&quot;s3&quot;&gt;&#39;_GVV&#39;&lt;/span&gt;&lt;span style=&quot;font-variant-ligatures: no-common-ligatures;&quot; class=&quot;s1&quot;&gt;, vlc_grv(:,:,&lt;/span&gt;&lt;span style=&quot;font-variant-ligatures: no-common-ligatures; color: rgb(180, 36, 25);&quot; class=&quot;s3&quot;&gt;2&lt;/span&gt;&lt;span style=&quot;font-variant-ligatures: no-common-ligatures;&quot; class=&quot;s1&quot;&gt;), pcols, lchnk )&lt;/span&gt;&lt;br&gt;&lt;span style=&quot;font-variant-ligatures: no-common-ligatures;&quot; class=&quot;s1&quot;&gt;&amp;nbsp;&amp;nbsp; &amp;nbsp; &amp;nbsp; &lt;/span&gt;&lt;span style=&quot;font-variant-ligatures: no-common-ligatures; color: rgb(46, 174, 187);&quot; class=&quot;s4&quot;&gt;call&lt;/span&gt;&lt;span style=&quot;font-variant-ligatures: no-common-ligatures;&quot; class=&quot;s1&quot;&gt; outfld( &lt;/span&gt;&lt;span style=&quot;font-variant-ligatures: no-common-ligatures; color: rgb(180, 36, 25);&quot; class=&quot;s3&quot;&gt;&#39;num_a&#39;&lt;/span&gt;&lt;span style=&quot;font-variant-ligatures: no-common-ligatures; color: rgb(193, 101, 28);&quot; class=&quot;s2&quot;&gt;//&lt;/span&gt;&lt;span style=&quot;font-variant-ligatures: no-common-ligatures; color: rgb(46, 174, 187);&quot; class=&quot;s4&quot;&gt;trim&lt;/span&gt;&lt;span style=&quot;font-variant-ligatures: no-common-ligatures;&quot; class=&quot;s1&quot;&gt;(&lt;/span&gt;&lt;span style=&quot;font-variant-ligatures: no-common-ligatures; color: rgb(46, 174, 187);&quot; class=&quot;s4&quot;&gt;adjustl&lt;/span&gt;&lt;span style=&quot;font-variant-ligatures: no-common-ligatures;&quot; class=&quot;s1&quot;&gt;(str))&lt;/span&gt;&lt;span style=&quot;font-variant-ligatures: no-common-ligatures; color: rgb(193, 101, 28);&quot; class=&quot;s2&quot;&gt;//&lt;/span&gt;&lt;span style=&quot;font-variant-ligatures: no-common-ligatures; color: rgb(180, 36, 25);&quot; class=&quot;s3&quot;&gt;&#39;_TBV&#39;&lt;/span&gt;&lt;span style=&quot;font-variant-ligatures: no-common-ligatures;&quot; class=&quot;s1&quot;&gt;, vlc_trb(:,&lt;span class=&quot;Apple-converted-space&quot;&gt;&amp;nbsp; &lt;/span&gt;&lt;/span&gt;&lt;span style=&quot;font-variant-ligatures: no-common-ligatures; color: rgb(180, 36, 25);&quot; class=&quot;s3&quot;&gt;1&lt;/span&gt;&lt;span style=&quot;font-variant-ligatures: no-common-ligatures;&quot; class=&quot;s1&quot;&gt;), pcols, lchnk )&lt;/span&gt;&lt;br&gt;&lt;span style=&quot;font-variant-ligatures: no-common-ligatures;&quot; class=&quot;s1&quot;&gt;&amp;nbsp;&amp;nbsp; &amp;nbsp; &amp;nbsp; &lt;/span&gt;&lt;span style=&quot;font-variant-ligatures: no-common-ligatures; color: rgb(46, 174, 187);&quot; class=&quot;s4&quot;&gt;call&lt;/span&gt;&lt;span style=&quot;font-variant-ligatures: no-common-ligatures;&quot; class=&quot;s1&quot;&gt; outfld( &lt;/span&gt;&lt;span style=&quot;font-variant-ligatures: no-common-ligatures; color: rgb(180, 36, 25);&quot; class=&quot;s3&quot;&gt;&#39;mss_a&#39;&lt;/span&gt;&lt;span style=&quot;font-variant-ligatures: no-common-ligatures; color: rgb(193, 101, 28);&quot; class=&quot;s2&quot;&gt;//&lt;/span&gt;&lt;span style=&quot;font-variant-ligatures: no-common-ligatures; color: rgb(46, 174, 187);&quot; class=&quot;s4&quot;&gt;trim&lt;/span&gt;&lt;span style=&quot;font-variant-ligatures: no-common-ligatures;&quot; class=&quot;s1&quot;&gt;(&lt;/span&gt;&lt;span style=&quot;font-variant-ligatures: no-common-ligatures; color: rgb(46, 174, 187);&quot; class=&quot;s4&quot;&gt;adjustl&lt;/span&gt;&lt;span style=&quot;font-variant-ligatures: no-common-ligatures;&quot; class=&quot;s1&quot;&gt;(str))&lt;/span&gt;&lt;span style=&quot;font-variant-ligatures: no-common-ligatures; color: rgb(193, 101, 28);&quot; class=&quot;s2&quot;&gt;//&lt;/span&gt;&lt;span style=&quot;font-variant-ligatures: no-common-ligatures; color: rgb(180, 36, 25);&quot; class=&quot;s3&quot;&gt;&#39;_TBV&#39;&lt;/span&gt;&lt;span style=&quot;font-variant-ligatures: no-common-ligatures;&quot; class=&quot;s1&quot;&gt;, vlc_trb(:,&lt;span class=&quot;Apple-converted-space&quot;&gt;&amp;nbsp; &lt;/span&gt;&lt;/span&gt;&lt;span style=&quot;font-variant-ligatures: no-common-ligatures; color: rgb(180, 36, 25);&quot; class=&quot;s3&quot;&gt;2&lt;/span&gt;&lt;span style=&quot;font-variant-ligatures: no-common-ligatures;&quot; class=&quot;s1&quot;&gt;), pcols, lchnk )&lt;/span&gt;" style="text;html=1;strokeColor=none;fillColor=none;spacing=5;spacingTop=-20;whiteSpace=wrap;overflow=hidden;rounded=0;" parent="eu7nGwEuYAv5mt5INT4q-1" vertex="1">
          <mxGeometry x="499" y="412" width="440" height="80" as="geometry" />
        </mxCell>
        <mxCell id="qMlvXc1oTAESJQ40dyFE-9" value="sedimentation_solver_for_1_tracer" style="rounded=1;whiteSpace=wrap;html=1;align=left;spacingLeft=4;" parent="eu7nGwEuYAv5mt5INT4q-1" vertex="1">
          <mxGeometry x="520" y="515" width="200" height="20" as="geometry" />
        </mxCell>
        <mxCell id="qMlvXc1oTAESJQ40dyFE-10" value="drydep_diags_for_1_tracer" style="rounded=1;whiteSpace=wrap;html=1;align=left;spacingLeft=4;" parent="eu7nGwEuYAv5mt5INT4q-1" vertex="1">
          <mxGeometry x="520" y="542" width="160" height="20" as="geometry" />
        </mxCell>
        <mxCell id="qMlvXc1oTAESJQ40dyFE-12" value="" style="endArrow=classic;html=1;rounded=0;exitX=1;exitY=0.75;exitDx=0;exitDy=0;entryX=0;entryY=0.5;entryDx=0;entryDy=0;align=left;spacingLeft=4;" parent="eu7nGwEuYAv5mt5INT4q-1" source="rqjfGU9eP3pIPMUwoF6y-3" target="qMlvXc1oTAESJQ40dyFE-10" edge="1">
          <mxGeometry width="50" height="50" relative="1" as="geometry">
            <mxPoint x="479" y="515" as="sourcePoint" />
            <mxPoint x="529" y="509.5" as="targetPoint" />
          </mxGeometry>
        </mxCell>
        <mxCell id="qMlvXc1oTAESJQ40dyFE-13" value="" style="endArrow=classic;html=1;rounded=0;entryX=0;entryY=0.5;entryDx=0;entryDy=0;align=left;spacingLeft=4;exitX=1;exitY=0.75;exitDx=0;exitDy=0;" parent="eu7nGwEuYAv5mt5INT4q-1" source="rqjfGU9eP3pIPMUwoF6y-3" target="qMlvXc1oTAESJQ40dyFE-9" edge="1">
          <mxGeometry width="50" height="50" relative="1" as="geometry">
            <mxPoint x="469" y="482" as="sourcePoint" />
            <mxPoint x="539" y="492" as="targetPoint" />
          </mxGeometry>
        </mxCell>
        <mxCell id="F8_aINTTBRoubGeAza-G-1" value="physics_update" style="rounded=1;whiteSpace=wrap;html=1;align=left;spacingLeft=5;fillColor=#eeeeee;strokeColor=#36393d;" parent="eu7nGwEuYAv5mt5INT4q-1" vertex="1">
          <mxGeometry x="69" y="152" width="120" height="30" as="geometry" />
        </mxCell>
        <mxCell id="MTkyEazf3_cOql3VceXm-2" value="calc_ustar_obklen" style="rounded=1;whiteSpace=wrap;html=1;align=left;spacingLeft=4;" parent="eu7nGwEuYAv5mt5INT4q-1" vertex="1">
          <mxGeometry x="529" y="32" width="110" height="30" as="geometry" />
        </mxCell>
        <mxCell id="sN5ErgYOu7oWftuZLYk1-5" value="&amp;nbsp; &amp;nbsp;&amp;nbsp;&lt;span style=&quot;font-variant-ligatures: no-common-ligatures; color: rgb(19, 147, 159);&quot; class=&quot;s2&quot;&gt;call&lt;/span&gt;&lt;span style=&quot;font-variant-ligatures: no-common-ligatures;&quot; class=&quot;s1&quot;&gt; outfld( cnst_name_in&lt;/span&gt;&lt;span style=&quot;font-variant-ligatures: no-common-ligatures; color: rgb(166, 82, 12);&quot; class=&quot;s3&quot;&gt;//&lt;/span&gt;&lt;span style=&quot;font-variant-ligatures: no-common-ligatures; color: rgb(159, 20, 16);&quot; class=&quot;s4&quot;&gt;&#39;DDF&#39;&lt;/span&gt;&lt;span style=&quot;font-variant-ligatures: no-common-ligatures;&quot; class=&quot;s1&quot;&gt;, sflx, &lt;span class=&quot;Apple-converted-space&quot;&gt;&amp;nbsp; &amp;nbsp; &lt;/span&gt;pcols, lchnk)&lt;/span&gt;&lt;br&gt;&lt;span style=&quot;font-variant-ligatures: no-common-ligatures;&quot; class=&quot;s1&quot;&gt;&amp;nbsp; &amp;nbsp; &lt;/span&gt;&lt;span style=&quot;font-variant-ligatures: no-common-ligatures; color: rgb(19, 147, 159);&quot; class=&quot;s2&quot;&gt;call&lt;/span&gt;&lt;span style=&quot;font-variant-ligatures: no-common-ligatures;&quot; class=&quot;s1&quot;&gt; outfld( cnst_name_in&lt;/span&gt;&lt;span style=&quot;font-variant-ligatures: no-common-ligatures; color: rgb(166, 82, 12);&quot; class=&quot;s3&quot;&gt;//&lt;/span&gt;&lt;span style=&quot;font-variant-ligatures: no-common-ligatures; color: rgb(159, 20, 16);&quot; class=&quot;s4&quot;&gt;&#39;TBF&#39;&lt;/span&gt;&lt;span style=&quot;font-variant-ligatures: no-common-ligatures;&quot; class=&quot;s1&quot;&gt;, dep_trb,&lt;span class=&quot;Apple-converted-space&quot;&gt;&amp;nbsp; &lt;/span&gt;pcols, lchnk)&lt;/span&gt;&lt;br&gt;&lt;span style=&quot;font-variant-ligatures: no-common-ligatures;&quot; class=&quot;s1&quot;&gt;&amp;nbsp; &amp;nbsp; &lt;/span&gt;&lt;span style=&quot;font-variant-ligatures: no-common-ligatures; color: rgb(19, 147, 159);&quot; class=&quot;s2&quot;&gt;call&lt;/span&gt;&lt;span style=&quot;font-variant-ligatures: no-common-ligatures;&quot; class=&quot;s1&quot;&gt; outfld( cnst_name_in&lt;/span&gt;&lt;span style=&quot;font-variant-ligatures: no-common-ligatures; color: rgb(166, 82, 12);&quot; class=&quot;s3&quot;&gt;//&lt;/span&gt;&lt;span style=&quot;font-variant-ligatures: no-common-ligatures; color: rgb(159, 20, 16);&quot; class=&quot;s4&quot;&gt;&#39;GVF&#39;&lt;/span&gt;&lt;span style=&quot;font-variant-ligatures: no-common-ligatures;&quot; class=&quot;s1&quot;&gt;, dep_grv,&lt;span class=&quot;Apple-converted-space&quot;&gt;&amp;nbsp; &lt;/span&gt;pcols, lchnk)&lt;/span&gt;" style="text;html=1;strokeColor=none;fillColor=none;spacing=5;spacingTop=-20;whiteSpace=wrap;overflow=hidden;rounded=0;align=left;spacingLeft=4;" parent="eu7nGwEuYAv5mt5INT4q-1" vertex="1">
          <mxGeometry x="669" y="252" width="360" height="40" as="geometry" />
        </mxCell>
        <mxCell id="qMlvXc1oTAESJQ40dyFE-11" value="&amp;nbsp; &amp;nbsp;&amp;nbsp;&lt;span style=&quot;font-variant-ligatures: no-common-ligatures; color: rgb(19, 147, 159);&quot; class=&quot;s2&quot;&gt;call&lt;/span&gt;&lt;span style=&quot;font-variant-ligatures: no-common-ligatures;&quot; class=&quot;s1&quot;&gt; outfld( cnst_name_in&lt;/span&gt;&lt;span style=&quot;font-variant-ligatures: no-common-ligatures; color: rgb(166, 82, 12);&quot; class=&quot;s3&quot;&gt;//&lt;/span&gt;&lt;span style=&quot;font-variant-ligatures: no-common-ligatures; color: rgb(159, 20, 16);&quot; class=&quot;s4&quot;&gt;&#39;DDF&#39;&lt;/span&gt;&lt;span style=&quot;font-variant-ligatures: no-common-ligatures;&quot; class=&quot;s1&quot;&gt;, sflx, &lt;span class=&quot;Apple-converted-space&quot;&gt;&amp;nbsp; &amp;nbsp; &lt;/span&gt;pcols, lchnk)&lt;/span&gt;&lt;br&gt;&lt;span style=&quot;font-variant-ligatures: no-common-ligatures;&quot; class=&quot;s1&quot;&gt;&amp;nbsp; &amp;nbsp; &lt;/span&gt;&lt;span style=&quot;font-variant-ligatures: no-common-ligatures; color: rgb(19, 147, 159);&quot; class=&quot;s2&quot;&gt;call&lt;/span&gt;&lt;span style=&quot;font-variant-ligatures: no-common-ligatures;&quot; class=&quot;s1&quot;&gt; outfld( cnst_name_in&lt;/span&gt;&lt;span style=&quot;font-variant-ligatures: no-common-ligatures; color: rgb(166, 82, 12);&quot; class=&quot;s3&quot;&gt;//&lt;/span&gt;&lt;span style=&quot;font-variant-ligatures: no-common-ligatures; color: rgb(159, 20, 16);&quot; class=&quot;s4&quot;&gt;&#39;TBF&#39;&lt;/span&gt;&lt;span style=&quot;font-variant-ligatures: no-common-ligatures;&quot; class=&quot;s1&quot;&gt;, dep_trb,&lt;span class=&quot;Apple-converted-space&quot;&gt;&amp;nbsp; &lt;/span&gt;pcols, lchnk)&lt;/span&gt;&lt;br&gt;&lt;span style=&quot;font-variant-ligatures: no-common-ligatures;&quot; class=&quot;s1&quot;&gt;&amp;nbsp; &amp;nbsp; &lt;/span&gt;&lt;span style=&quot;font-variant-ligatures: no-common-ligatures; color: rgb(19, 147, 159);&quot; class=&quot;s2&quot;&gt;call&lt;/span&gt;&lt;span style=&quot;font-variant-ligatures: no-common-ligatures;&quot; class=&quot;s1&quot;&gt; outfld( cnst_name_in&lt;/span&gt;&lt;span style=&quot;font-variant-ligatures: no-common-ligatures; color: rgb(166, 82, 12);&quot; class=&quot;s3&quot;&gt;//&lt;/span&gt;&lt;span style=&quot;font-variant-ligatures: no-common-ligatures; color: rgb(159, 20, 16);&quot; class=&quot;s4&quot;&gt;&#39;GVF&#39;&lt;/span&gt;&lt;span style=&quot;font-variant-ligatures: no-common-ligatures;&quot; class=&quot;s1&quot;&gt;, dep_grv,&lt;span class=&quot;Apple-converted-space&quot;&gt;&amp;nbsp; &lt;/span&gt;pcols, lchnk)&lt;br&gt;&lt;br&gt;&lt;span style=&quot;font-variant-ligatures: no-common-ligatures;&quot; class=&quot;s1&quot;&gt;&lt;/span&gt;&lt;span style=&quot;font-variant-ligatures: no-common-ligatures; color: rgb(46, 174, 187);&quot; class=&quot;s2&quot;&gt;&amp;nbsp; &amp;nbsp; call&lt;/span&gt;&lt;span style=&quot;font-variant-ligatures: no-common-ligatures;&quot; class=&quot;s1&quot;&gt; outfld( cnst_name_in&lt;/span&gt;&lt;span style=&quot;font-variant-ligatures: no-common-ligatures; color: rgb(193, 101, 28);&quot; class=&quot;s3&quot;&gt;//&lt;/span&gt;&lt;span style=&quot;font-variant-ligatures: no-common-ligatures; color: rgb(180, 36, 25);&quot; class=&quot;s4&quot;&gt;&#39;DTQ_TB&#39;&lt;/span&gt;&lt;span style=&quot;font-variant-ligatures: no-common-ligatures;&quot; class=&quot;s1&quot;&gt;, tnd_trb,&lt;span class=&quot;Apple-converted-space&quot;&gt;&amp;nbsp; &lt;/span&gt;pcols, lchnk)&lt;/span&gt;&lt;br&gt;&lt;span style=&quot;font-variant-ligatures: no-common-ligatures;&quot; class=&quot;s1&quot;&gt;&lt;span class=&quot;Apple-converted-space&quot;&gt;&amp;nbsp;&amp;nbsp; &amp;nbsp;&lt;/span&gt;&lt;/span&gt;&lt;span style=&quot;font-variant-ligatures: no-common-ligatures; color: rgb(46, 174, 187);&quot; class=&quot;s2&quot;&gt;call&lt;/span&gt;&lt;span style=&quot;font-variant-ligatures: no-common-ligatures;&quot; class=&quot;s1&quot;&gt; outfld( cnst_name_in&lt;/span&gt;&lt;span style=&quot;font-variant-ligatures: no-common-ligatures; color: rgb(193, 101, 28);&quot; class=&quot;s3&quot;&gt;//&lt;/span&gt;&lt;span style=&quot;font-variant-ligatures: no-common-ligatures; color: rgb(180, 36, 25);&quot; class=&quot;s4&quot;&gt;&#39;DTQ_GV&#39;&lt;/span&gt;&lt;span style=&quot;font-variant-ligatures: no-common-ligatures;&quot; class=&quot;s1&quot;&gt;, tnd_grv,&lt;span class=&quot;Apple-converted-space&quot;&gt;&amp;nbsp; &lt;/span&gt;pcols, lchnk)&lt;/span&gt;&lt;br&gt;&lt;span style=&quot;font-variant-ligatures: no-common-ligatures;&quot; class=&quot;s1&quot;&gt;&lt;span class=&quot;Apple-converted-space&quot;&gt;&amp;nbsp;&amp;nbsp; &amp;nbsp;&lt;/span&gt;&lt;/span&gt;&lt;span style=&quot;font-variant-ligatures: no-common-ligatures; color: rgb(46, 174, 187);&quot; class=&quot;s2&quot;&gt;call&lt;/span&gt;&lt;span style=&quot;font-variant-ligatures: no-common-ligatures;&quot; class=&quot;s1&quot;&gt; outfld( cnst_name_in&lt;/span&gt;&lt;span style=&quot;font-variant-ligatures: no-common-ligatures; color: rgb(193, 101, 28);&quot; class=&quot;s3&quot;&gt;//&lt;/span&gt;&lt;span style=&quot;font-variant-ligatures: no-common-ligatures; color: rgb(180, 36, 25);&quot; class=&quot;s4&quot;&gt;&#39;DTQ&#39;&lt;/span&gt;&lt;span style=&quot;font-variant-ligatures: no-common-ligatures;&quot; class=&quot;s1&quot;&gt;,&lt;span class=&quot;Apple-converted-space&quot;&gt;&amp;nbsp; &amp;nbsp; &lt;/span&gt;dqdt_sed, pcols, lchnk)&lt;/span&gt;&lt;p style=&quot;margin: 0px; font-variant-ligatures: normal; font-variant-numeric: normal; font-variant-east-asian: normal; font-variant-alternates: normal; font-kerning: auto; font-optical-sizing: auto; font-feature-settings: normal; font-variation-settings: normal; font-stretch: normal; font-size: 11px; line-height: normal; font-family: Menlo; min-height: 13px;&quot; class=&quot;p2&quot;&gt;&lt;span style=&quot;font-variant-ligatures: no-common-ligatures;&quot; class=&quot;s1&quot;&gt;&lt;/span&gt;&lt;br&gt;&lt;/p&gt;&lt;/span&gt;" style="text;html=1;strokeColor=none;fillColor=none;spacing=5;spacingTop=-20;whiteSpace=wrap;overflow=hidden;rounded=0;align=left;spacingLeft=4;" parent="eu7nGwEuYAv5mt5INT4q-1" vertex="1">
          <mxGeometry x="670" y="552" width="360" height="110" as="geometry" />
        </mxCell>
      </root>
    </mxGraphModel>
  </diagram>
  <diagram id="Tb9u5bMwGyt_p8gxw356" name="scheme 41">
    <mxGraphModel dx="801" dy="716" grid="1" gridSize="10" guides="1" tooltips="1" connect="1" arrows="1" fold="1" page="1" pageScale="1" pageWidth="850" pageHeight="1100" math="0" shadow="0">
      <root>
        <mxCell id="0" />
        <mxCell id="1" parent="0" />
        <mxCell id="j0fODryRAX1lzSPa2Xor-7" value="do&lt;span style=&quot;font-variant-ligatures: no-common-ligatures;&quot; class=&quot;s2&quot;&gt; macmic_it &lt;/span&gt;&lt;span style=&quot;font-variant-ligatures: no-common-ligatures; color: rgb(166, 82, 12);&quot; class=&quot;s1&quot;&gt;=&lt;/span&gt;&lt;span style=&quot;font-variant-ligatures: no-common-ligatures;&quot; class=&quot;s2&quot;&gt; &lt;/span&gt;&lt;span style=&quot;font-variant-ligatures: no-common-ligatures; color: rgb(159, 20, 16);&quot; class=&quot;s3&quot;&gt;1&lt;/span&gt;&lt;span style=&quot;font-variant-ligatures: no-common-ligatures;&quot; class=&quot;s2&quot;&gt;, cld_macmic_num_steps&lt;/span&gt;" style="shape=trapezoid;perimeter=trapezoidPerimeter;whiteSpace=wrap;html=1;fixedSize=1;" parent="1" vertex="1">
          <mxGeometry x="80" y="690" width="310" height="30" as="geometry" />
        </mxCell>
        <mxCell id="j0fODryRAX1lzSPa2Xor-9" value="" style="group" parent="1" vertex="1" connectable="0">
          <mxGeometry x="115" y="790" width="715" height="84.25" as="geometry" />
        </mxCell>
        <mxCell id="Q1V148kWglEiilFS4_mz-7" value="" style="group" parent="j0fODryRAX1lzSPa2Xor-9" vertex="1" connectable="0">
          <mxGeometry width="715" height="84.25" as="geometry" />
        </mxCell>
        <mxCell id="J-Whhj7DW3SULGwVJKn7-14" value="interstitial_aero_turb_dep_velocity" style="rounded=1;whiteSpace=wrap;html=1;align=left;spacingLeft=4;fillColor=#eeeeee;strokeColor=#36393d;" parent="Q1V148kWglEiilFS4_mz-7" vertex="1">
          <mxGeometry x="21" y="8.25" width="190" height="27" as="geometry" />
        </mxCell>
        <mxCell id="j0fODryRAX1lzSPa2Xor-1" value="&lt;h1&gt;&lt;/h1&gt;&amp;nbsp; &amp;nbsp;&amp;nbsp;&lt;span style=&quot;font-variant-ligatures: no-common-ligatures; color: rgb(19, 147, 159);&quot; class=&quot;s2&quot;&gt;call&lt;/span&gt;&lt;span style=&quot;font-variant-ligatures: no-common-ligatures;&quot; class=&quot;s1&quot;&gt; outfld( &lt;/span&gt;&lt;span style=&quot;font-variant-ligatures: no-common-ligatures; color: rgb(159, 20, 16);&quot; class=&quot;s3&quot;&gt;&#39;airFV&#39;&lt;/span&gt;&lt;span style=&quot;font-variant-ligatures: no-common-ligatures;&quot; class=&quot;s1&quot;&gt;, fv(:), pcols, lchnk )&lt;/span&gt;&lt;br&gt;&lt;span style=&quot;font-variant-ligatures: no-common-ligatures;&quot; class=&quot;s1&quot;&gt;&amp;nbsp; &amp;nbsp; &lt;/span&gt;&lt;span style=&quot;font-variant-ligatures: no-common-ligatures;&quot; class=&quot;s2&quot;&gt;&lt;font color=&quot;#13939f&quot;&gt;call&lt;/font&gt;&lt;/span&gt;&lt;span style=&quot;font-variant-ligatures: no-common-ligatures;&quot; class=&quot;s1&quot;&gt; outfld( &lt;/span&gt;&lt;span style=&quot;font-variant-ligatures: no-common-ligatures; color: rgb(159, 20, 16);&quot; class=&quot;s3&quot;&gt;&#39;RAM1&#39;&lt;/span&gt;&lt;span style=&quot;font-variant-ligatures: no-common-ligatures;&quot; class=&quot;s1&quot;&gt;, ram1(:), pcols, lchnk )&lt;br&gt;&lt;br&gt;&lt;br&gt;&lt;/span&gt;" style="text;html=1;strokeColor=none;fillColor=none;spacing=5;spacingTop=-20;whiteSpace=wrap;overflow=hidden;rounded=0;align=left;spacingLeft=4;" parent="Q1V148kWglEiilFS4_mz-7" vertex="1">
          <mxGeometry y="38.25" width="250" height="40" as="geometry" />
        </mxCell>
        <mxCell id="j0fODryRAX1lzSPa2Xor-2" value="pbuf_get_field" style="rounded=1;whiteSpace=wrap;html=1;align=left;spacingLeft=4;" parent="Q1V148kWglEiilFS4_mz-7" vertex="1">
          <mxGeometry x="252" width="89" height="20" as="geometry" />
        </mxCell>
        <mxCell id="j0fODryRAX1lzSPa2Xor-3" value="modal_aero_turb_drydep_velocity" style="rounded=1;whiteSpace=wrap;html=1;align=left;spacingLeft=4;" parent="Q1V148kWglEiilFS4_mz-7" vertex="1">
          <mxGeometry x="252" y="23.5" width="210" height="20" as="geometry" />
        </mxCell>
        <mxCell id="j0fODryRAX1lzSPa2Xor-4" value="" style="endArrow=classic;html=1;rounded=0;exitX=1;exitY=0.5;exitDx=0;exitDy=0;entryX=0;entryY=0.5;entryDx=0;entryDy=0;align=left;spacingLeft=4;" parent="Q1V148kWglEiilFS4_mz-7" source="J-Whhj7DW3SULGwVJKn7-14" target="j0fODryRAX1lzSPa2Xor-2" edge="1">
          <mxGeometry width="50" height="50" relative="1" as="geometry">
            <mxPoint x="181" y="-4.75" as="sourcePoint" />
            <mxPoint x="231" y="-47.75" as="targetPoint" />
          </mxGeometry>
        </mxCell>
        <mxCell id="j0fODryRAX1lzSPa2Xor-5" value="" style="endArrow=classic;html=1;rounded=0;exitX=1;exitY=0.5;exitDx=0;exitDy=0;entryX=0;entryY=0.5;entryDx=0;entryDy=0;align=left;spacingLeft=4;" parent="Q1V148kWglEiilFS4_mz-7" source="J-Whhj7DW3SULGwVJKn7-14" target="j0fODryRAX1lzSPa2Xor-3" edge="1">
          <mxGeometry width="50" height="50" relative="1" as="geometry">
            <mxPoint x="191" y="5.25" as="sourcePoint" />
            <mxPoint x="241" y="-37.75" as="targetPoint" />
          </mxGeometry>
        </mxCell>
        <mxCell id="j0fODryRAX1lzSPa2Xor-6" value="&amp;nbsp; &amp;nbsp; &amp;nbsp; &amp;nbsp;&lt;span style=&quot;font-variant-ligatures: no-common-ligatures; color: rgb(193, 101, 28);&quot; class=&quot;s2&quot;&gt;write&lt;/span&gt;&lt;span style=&quot;font-variant-ligatures: no-common-ligatures;&quot; class=&quot;s1&quot;&gt;(str,&lt;/span&gt;&lt;span style=&quot;font-variant-ligatures: no-common-ligatures; color: rgb(180, 36, 25);&quot; class=&quot;s3&quot;&gt;&#39;(i0)&#39;&lt;/span&gt;&lt;span style=&quot;font-variant-ligatures: no-common-ligatures;&quot; class=&quot;s1&quot;&gt;) imode&lt;/span&gt;&lt;br&gt;&lt;span style=&quot;font-variant-ligatures: no-common-ligatures;&quot; class=&quot;s1&quot;&gt;&amp;nbsp;&amp;nbsp; &amp;nbsp; &amp;nbsp; &lt;/span&gt;&lt;span style=&quot;font-variant-ligatures: no-common-ligatures; color: rgb(46, 174, 187);&quot; class=&quot;s4&quot;&gt;call&lt;/span&gt;&lt;span style=&quot;font-variant-ligatures: no-common-ligatures;&quot; class=&quot;s1&quot;&gt; outfld( &lt;/span&gt;&lt;span style=&quot;font-variant-ligatures: no-common-ligatures; color: rgb(180, 36, 25);&quot; class=&quot;s3&quot;&gt;&#39;num_a&#39;&lt;/span&gt;&lt;span style=&quot;font-variant-ligatures: no-common-ligatures; color: rgb(193, 101, 28);&quot; class=&quot;s2&quot;&gt;//&lt;/span&gt;&lt;span style=&quot;font-variant-ligatures: no-common-ligatures; color: rgb(46, 174, 187);&quot; class=&quot;s4&quot;&gt;trim&lt;/span&gt;&lt;span style=&quot;font-variant-ligatures: no-common-ligatures;&quot; class=&quot;s1&quot;&gt;(&lt;/span&gt;&lt;span style=&quot;font-variant-ligatures: no-common-ligatures; color: rgb(46, 174, 187);&quot; class=&quot;s4&quot;&gt;adjustl&lt;/span&gt;&lt;span style=&quot;font-variant-ligatures: no-common-ligatures;&quot; class=&quot;s1&quot;&gt;(str))&lt;/span&gt;&lt;span style=&quot;font-variant-ligatures: no-common-ligatures; color: rgb(193, 101, 28);&quot; class=&quot;s2&quot;&gt;//&lt;/span&gt;&lt;span style=&quot;font-variant-ligatures: no-common-ligatures; color: rgb(180, 36, 25);&quot; class=&quot;s3&quot;&gt;&#39;_TBV&#39;&lt;/span&gt;&lt;span style=&quot;font-variant-ligatures: no-common-ligatures;&quot; class=&quot;s1&quot;&gt;, &lt;/span&gt;&lt;span style=&quot;font-variant-ligatures: no-common-ligatures; background-color: rgb(224, 228, 9);&quot; class=&quot;s5&quot;&gt;vlc_trb&lt;/span&gt;&lt;span style=&quot;font-variant-ligatures: no-common-ligatures;&quot; class=&quot;s1&quot;&gt;(:,&lt;/span&gt;&lt;span style=&quot;font-variant-ligatures: no-common-ligatures; color: rgb(180, 36, 25);&quot; class=&quot;s3&quot;&gt;1&lt;/span&gt;&lt;span style=&quot;font-variant-ligatures: no-common-ligatures;&quot; class=&quot;s1&quot;&gt;,imode), pcols, lchnk )&lt;/span&gt;&lt;br&gt;&lt;span style=&quot;font-variant-ligatures: no-common-ligatures;&quot; class=&quot;s1&quot;&gt;&amp;nbsp;&amp;nbsp; &amp;nbsp; &amp;nbsp; &lt;/span&gt;&lt;span style=&quot;font-variant-ligatures: no-common-ligatures; color: rgb(46, 174, 187);&quot; class=&quot;s4&quot;&gt;call&lt;/span&gt;&lt;span style=&quot;font-variant-ligatures: no-common-ligatures;&quot; class=&quot;s1&quot;&gt; outfld( &lt;/span&gt;&lt;span style=&quot;font-variant-ligatures: no-common-ligatures; color: rgb(180, 36, 25);&quot; class=&quot;s3&quot;&gt;&#39;mss_a&#39;&lt;/span&gt;&lt;span style=&quot;font-variant-ligatures: no-common-ligatures; color: rgb(193, 101, 28);&quot; class=&quot;s2&quot;&gt;//&lt;/span&gt;&lt;span style=&quot;font-variant-ligatures: no-common-ligatures; color: rgb(46, 174, 187);&quot; class=&quot;s4&quot;&gt;trim&lt;/span&gt;&lt;span style=&quot;font-variant-ligatures: no-common-ligatures;&quot; class=&quot;s1&quot;&gt;(&lt;/span&gt;&lt;span style=&quot;font-variant-ligatures: no-common-ligatures; color: rgb(46, 174, 187);&quot; class=&quot;s4&quot;&gt;adjustl&lt;/span&gt;&lt;span style=&quot;font-variant-ligatures: no-common-ligatures;&quot; class=&quot;s1&quot;&gt;(str))&lt;/span&gt;&lt;span style=&quot;font-variant-ligatures: no-common-ligatures; color: rgb(193, 101, 28);&quot; class=&quot;s2&quot;&gt;//&lt;/span&gt;&lt;span style=&quot;font-variant-ligatures: no-common-ligatures; color: rgb(180, 36, 25);&quot; class=&quot;s3&quot;&gt;&#39;_TBV&#39;&lt;/span&gt;&lt;span style=&quot;font-variant-ligatures: no-common-ligatures;&quot; class=&quot;s1&quot;&gt;, &lt;/span&gt;&lt;span style=&quot;font-variant-ligatures: no-common-ligatures; background-color: rgb(224, 228, 9);&quot; class=&quot;s5&quot;&gt;vlc_trb&lt;/span&gt;&lt;span style=&quot;font-variant-ligatures: no-common-ligatures;&quot; class=&quot;s1&quot;&gt;(:,&lt;/span&gt;&lt;span style=&quot;font-variant-ligatures: no-common-ligatures; color: rgb(180, 36, 25);&quot; class=&quot;s3&quot;&gt;2&lt;/span&gt;&lt;span style=&quot;font-variant-ligatures: no-common-ligatures;&quot; class=&quot;s1&quot;&gt;,imode), pcols, lchnk )&lt;/span&gt;" style="text;html=1;strokeColor=none;fillColor=none;align=left;verticalAlign=middle;whiteSpace=wrap;rounded=0;" parent="Q1V148kWglEiilFS4_mz-7" vertex="1">
          <mxGeometry x="235" y="54.25" width="480" height="30" as="geometry" />
        </mxCell>
        <mxCell id="j0fODryRAX1lzSPa2Xor-16" value="call&lt;span style=&quot;font-variant-ligatures: no-common-ligatures;&quot; class=&quot;s2&quot;&gt; outfld_aero_cnst_2d( aerdepdryis_trb, &lt;/span&gt;&lt;span style=&quot;font-variant-ligatures: no-common-ligatures; color: rgb(159, 20, 16);&quot; class=&quot;s3&quot;&gt;&#39;TBF&#39;&lt;/span&gt;&lt;span style=&quot;font-variant-ligatures: no-common-ligatures;&quot; class=&quot;s2&quot;&gt;, lchnk )&lt;/span&gt;" style="text;html=1;strokeColor=none;fillColor=none;align=center;verticalAlign=middle;whiteSpace=wrap;rounded=0;" parent="1" vertex="1">
          <mxGeometry x="130" y="1360" width="330" height="30" as="geometry" />
        </mxCell>
        <mxCell id="j0fODryRAX1lzSPa2Xor-17" value="" style="shape=trapezoid;perimeter=trapezoidPerimeter;whiteSpace=wrap;html=1;fixedSize=1;size=11;rotation=-180;" parent="1" vertex="1">
          <mxGeometry x="80" y="1410" width="290" height="20" as="geometry" />
        </mxCell>
        <mxCell id="0CyMpw7FTZLpKVEAZZ6b-1" value="set_srf_drydep" style="rounded=1;whiteSpace=wrap;html=1;align=left;spacingLeft=4;fillColor=#eeeeee;strokeColor=#36393d;" parent="1" vertex="1">
          <mxGeometry x="89" y="1460" width="100" height="30" as="geometry" />
        </mxCell>
        <mxCell id="0CyMpw7FTZLpKVEAZZ6b-2" value="call&lt;span style=&quot;font-variant-ligatures: no-common-ligatures;&quot; class=&quot;s2&quot;&gt; outfld_aero_cnst_2d( aerdepdryis, &lt;/span&gt;&lt;span style=&quot;font-variant-ligatures: no-common-ligatures; color: rgb(159, 20, 16);&quot; class=&quot;s3&quot;&gt;&#39;DDF&#39;&lt;/span&gt;&lt;span style=&quot;font-variant-ligatures: no-common-ligatures;&quot; class=&quot;s2&quot;&gt;, lchnk )&lt;/span&gt;" style="text;html=1;strokeColor=none;fillColor=none;align=center;verticalAlign=middle;whiteSpace=wrap;rounded=0;" parent="1" vertex="1">
          <mxGeometry x="70" y="1500" width="320" height="30" as="geometry" />
        </mxCell>
        <mxCell id="Q1V148kWglEiilFS4_mz-1" value="cflx_tend" style="rounded=1;whiteSpace=wrap;html=1;align=left;spacingLeft=4;fillColor=#eeeeee;strokeColor=#36393d;" parent="1" vertex="1">
          <mxGeometry x="135" y="740" width="65" height="27" as="geometry" />
        </mxCell>
        <mxCell id="6xVnJijO6t7AwcL6DPNy-1" value="New code, scheme 41" style="text;html=1;strokeColor=#82b366;fillColor=#d5e8d4;align=left;verticalAlign=middle;whiteSpace=wrap;rounded=0;spacingLeft=5;" parent="1" vertex="1">
          <mxGeometry x="12" y="20" width="138" height="30" as="geometry" />
        </mxCell>
        <mxCell id="6xVnJijO6t7AwcL6DPNy-2" value="tphys&lt;font color=&quot;#ff0000&quot;&gt;a&lt;/font&gt;c" style="swimlane;horizontal=0;whiteSpace=wrap;html=1;fillColor=#e1d5e7;strokeColor=#9673a6;strokeWidth=2;" parent="1" vertex="1">
          <mxGeometry x="12" y="96" width="808" height="530" as="geometry">
            <mxRectangle x="12" y="96" width="40" height="80" as="alternateBounds" />
          </mxGeometry>
        </mxCell>
        <mxCell id="6xVnJijO6t7AwcL6DPNy-3" value="" style="group" parent="1" vertex="1" connectable="0">
          <mxGeometry x="60" y="140" width="770" height="184" as="geometry" />
        </mxCell>
        <mxCell id="IkYi8OonK2mgzWxCz0yF-1" value="aero_model_drydep_cloudborne" style="rounded=1;whiteSpace=wrap;html=1;align=left;spacingLeft=4;fillColor=#eeeeee;strokeColor=#36393d;" parent="6xVnJijO6t7AwcL6DPNy-3" vertex="1">
          <mxGeometry x="20" y="80" width="190" height="27" as="geometry" />
        </mxCell>
        <mxCell id="IkYi8OonK2mgzWxCz0yF-3" value="modal_aero_depvel_part" style="rounded=1;whiteSpace=wrap;html=1;align=left;spacingLeft=4;" parent="6xVnJijO6t7AwcL6DPNy-3" vertex="1">
          <mxGeometry x="260" y="80" width="150" height="20" as="geometry" />
        </mxCell>
        <mxCell id="IkYi8OonK2mgzWxCz0yF-4" value="sedimentation_solver_for_1_tracer" style="rounded=1;whiteSpace=wrap;html=1;align=left;spacingLeft=4;" parent="6xVnJijO6t7AwcL6DPNy-3" vertex="1">
          <mxGeometry x="260" y="107" width="200" height="20" as="geometry" />
        </mxCell>
        <mxCell id="IkYi8OonK2mgzWxCz0yF-5" value="drydep_diags_for_1_tracer" style="rounded=1;whiteSpace=wrap;html=1;align=left;spacingLeft=4;" parent="6xVnJijO6t7AwcL6DPNy-3" vertex="1">
          <mxGeometry x="260" y="134" width="160" height="20" as="geometry" />
        </mxCell>
        <mxCell id="IkYi8OonK2mgzWxCz0yF-6" value="&amp;nbsp; &amp;nbsp;&amp;nbsp;&lt;span style=&quot;font-variant-ligatures: no-common-ligatures; color: rgb(19, 147, 159);&quot; class=&quot;s2&quot;&gt;call&lt;/span&gt;&lt;span style=&quot;font-variant-ligatures: no-common-ligatures;&quot; class=&quot;s1&quot;&gt; outfld( cnst_name_in&lt;/span&gt;&lt;span style=&quot;font-variant-ligatures: no-common-ligatures; color: rgb(166, 82, 12);&quot; class=&quot;s3&quot;&gt;//&lt;/span&gt;&lt;span style=&quot;font-variant-ligatures: no-common-ligatures; color: rgb(159, 20, 16);&quot; class=&quot;s4&quot;&gt;&#39;DDF&#39;&lt;/span&gt;&lt;span style=&quot;font-variant-ligatures: no-common-ligatures;&quot; class=&quot;s1&quot;&gt;, sflx, &lt;span class=&quot;Apple-converted-space&quot;&gt;&amp;nbsp; &amp;nbsp; &lt;/span&gt;pcols, lchnk)&lt;/span&gt;&lt;br&gt;&lt;span style=&quot;font-variant-ligatures: no-common-ligatures;&quot; class=&quot;s1&quot;&gt;&amp;nbsp; &amp;nbsp; &lt;/span&gt;&lt;span style=&quot;font-variant-ligatures: no-common-ligatures; color: rgb(19, 147, 159);&quot; class=&quot;s2&quot;&gt;call&lt;/span&gt;&lt;span style=&quot;font-variant-ligatures: no-common-ligatures;&quot; class=&quot;s1&quot;&gt; outfld( cnst_name_in&lt;/span&gt;&lt;span style=&quot;font-variant-ligatures: no-common-ligatures; color: rgb(166, 82, 12);&quot; class=&quot;s3&quot;&gt;//&lt;/span&gt;&lt;span style=&quot;font-variant-ligatures: no-common-ligatures; color: rgb(159, 20, 16);&quot; class=&quot;s4&quot;&gt;&#39;TBF&#39;&lt;/span&gt;&lt;span style=&quot;font-variant-ligatures: no-common-ligatures;&quot; class=&quot;s1&quot;&gt;, dep_trb,&lt;span class=&quot;Apple-converted-space&quot;&gt;&amp;nbsp; &lt;/span&gt;pcols, lchnk)&lt;/span&gt;&lt;br&gt;&lt;span style=&quot;font-variant-ligatures: no-common-ligatures;&quot; class=&quot;s1&quot;&gt;&amp;nbsp; &amp;nbsp; &lt;/span&gt;&lt;span style=&quot;font-variant-ligatures: no-common-ligatures; color: rgb(19, 147, 159);&quot; class=&quot;s2&quot;&gt;call&lt;/span&gt;&lt;span style=&quot;font-variant-ligatures: no-common-ligatures;&quot; class=&quot;s1&quot;&gt; outfld( cnst_name_in&lt;/span&gt;&lt;span style=&quot;font-variant-ligatures: no-common-ligatures; color: rgb(166, 82, 12);&quot; class=&quot;s3&quot;&gt;//&lt;/span&gt;&lt;span style=&quot;font-variant-ligatures: no-common-ligatures; color: rgb(159, 20, 16);&quot; class=&quot;s4&quot;&gt;&#39;GVF&#39;&lt;/span&gt;&lt;span style=&quot;font-variant-ligatures: no-common-ligatures;&quot; class=&quot;s1&quot;&gt;, dep_grv,&lt;span class=&quot;Apple-converted-space&quot;&gt;&amp;nbsp; &lt;/span&gt;pcols, lchnk)&lt;/span&gt;" style="text;html=1;strokeColor=none;fillColor=none;spacing=5;spacingTop=-20;whiteSpace=wrap;overflow=hidden;rounded=0;align=left;spacingLeft=4;" parent="6xVnJijO6t7AwcL6DPNy-3" vertex="1">
          <mxGeometry x="410" y="144" width="360" height="40" as="geometry" />
        </mxCell>
        <mxCell id="IkYi8OonK2mgzWxCz0yF-7" value="" style="endArrow=classic;html=1;rounded=0;exitX=1;exitY=0.5;exitDx=0;exitDy=0;entryX=0;entryY=0.5;entryDx=0;entryDy=0;align=left;spacingLeft=4;" parent="6xVnJijO6t7AwcL6DPNy-3" source="IkYi8OonK2mgzWxCz0yF-1" target="IkYi8OonK2mgzWxCz0yF-3" edge="1">
          <mxGeometry width="50" height="50" relative="1" as="geometry">
            <mxPoint x="210" y="102.5" as="sourcePoint" />
            <mxPoint x="260" y="82.5" as="targetPoint" />
          </mxGeometry>
        </mxCell>
        <mxCell id="IkYi8OonK2mgzWxCz0yF-8" value="" style="endArrow=classic;html=1;rounded=0;exitX=1;exitY=0.5;exitDx=0;exitDy=0;entryX=0;entryY=0.5;entryDx=0;entryDy=0;align=left;spacingLeft=4;" parent="6xVnJijO6t7AwcL6DPNy-3" source="IkYi8OonK2mgzWxCz0yF-1" target="IkYi8OonK2mgzWxCz0yF-5" edge="1">
          <mxGeometry width="50" height="50" relative="1" as="geometry">
            <mxPoint x="210" y="102.5" as="sourcePoint" />
            <mxPoint x="260" y="117.5" as="targetPoint" />
          </mxGeometry>
        </mxCell>
        <mxCell id="IkYi8OonK2mgzWxCz0yF-9" value="" style="endArrow=classic;html=1;rounded=0;entryX=0;entryY=0.5;entryDx=0;entryDy=0;exitX=1;exitY=0.5;exitDx=0;exitDy=0;align=left;spacingLeft=4;" parent="6xVnJijO6t7AwcL6DPNy-3" source="IkYi8OonK2mgzWxCz0yF-1" target="IkYi8OonK2mgzWxCz0yF-4" edge="1">
          <mxGeometry width="50" height="50" relative="1" as="geometry">
            <mxPoint x="210" y="100" as="sourcePoint" />
            <mxPoint x="270" y="100" as="targetPoint" />
          </mxGeometry>
        </mxCell>
        <mxCell id="IkYi8OonK2mgzWxCz0yF-10" value="modal_aero_gravit_settling_velocity" style="rounded=1;whiteSpace=wrap;html=1;align=left;spacingLeft=4;" parent="6xVnJijO6t7AwcL6DPNy-3" vertex="1">
          <mxGeometry x="450" y="60" width="210" height="20" as="geometry" />
        </mxCell>
        <mxCell id="IkYi8OonK2mgzWxCz0yF-11" value="modal_aero_turb_drydep_velocity" style="rounded=1;whiteSpace=wrap;html=1;align=left;spacingLeft=4;" parent="6xVnJijO6t7AwcL6DPNy-3" vertex="1">
          <mxGeometry x="450" y="83" width="210" height="20" as="geometry" />
        </mxCell>
        <mxCell id="IkYi8OonK2mgzWxCz0yF-12" value="" style="endArrow=classic;html=1;rounded=0;exitX=1;exitY=0.5;exitDx=0;exitDy=0;entryX=0;entryY=0.75;entryDx=0;entryDy=0;align=left;spacingLeft=4;" parent="6xVnJijO6t7AwcL6DPNy-3" source="IkYi8OonK2mgzWxCz0yF-3" target="IkYi8OonK2mgzWxCz0yF-10" edge="1">
          <mxGeometry width="50" height="50" relative="1" as="geometry">
            <mxPoint x="220" y="112.5" as="sourcePoint" />
            <mxPoint x="270" y="100" as="targetPoint" />
          </mxGeometry>
        </mxCell>
        <mxCell id="IkYi8OonK2mgzWxCz0yF-13" value="" style="endArrow=classic;html=1;rounded=0;exitX=1;exitY=0.5;exitDx=0;exitDy=0;entryX=0;entryY=0.5;entryDx=0;entryDy=0;align=left;spacingLeft=4;" parent="6xVnJijO6t7AwcL6DPNy-3" source="IkYi8OonK2mgzWxCz0yF-3" target="IkYi8OonK2mgzWxCz0yF-11" edge="1">
          <mxGeometry width="50" height="50" relative="1" as="geometry">
            <mxPoint x="420" y="100" as="sourcePoint" />
            <mxPoint x="460" y="85" as="targetPoint" />
          </mxGeometry>
        </mxCell>
        <mxCell id="IkYi8OonK2mgzWxCz0yF-14" value="" style="group" parent="6xVnJijO6t7AwcL6DPNy-3" vertex="1" connectable="0">
          <mxGeometry x="20" width="350" height="65" as="geometry" />
        </mxCell>
        <mxCell id="p9_6iBYyMc-JO0R1gWO4-1" value="get_gridcell_ram1_fricvel" style="rounded=1;whiteSpace=wrap;html=1;align=left;spacingLeft=4;fillColor=#eeeeee;strokeColor=#36393d;" parent="IkYi8OonK2mgzWxCz0yF-14" vertex="1">
          <mxGeometry y="40" width="150" height="25" as="geometry" />
        </mxCell>
        <mxCell id="p9_6iBYyMc-JO0R1gWO4-2" value="calc_ustar_obklen" style="rounded=1;whiteSpace=wrap;html=1;align=left;spacingLeft=4;" parent="IkYi8OonK2mgzWxCz0yF-14" vertex="1">
          <mxGeometry x="200" y="-10" width="110" height="30" as="geometry" />
        </mxCell>
        <mxCell id="p9_6iBYyMc-JO0R1gWO4-3" value="calc_ram" style="rounded=1;whiteSpace=wrap;html=1;align=left;spacingLeft=4;" parent="IkYi8OonK2mgzWxCz0yF-14" vertex="1">
          <mxGeometry x="200" y="25" width="60" height="30" as="geometry" />
        </mxCell>
        <mxCell id="p9_6iBYyMc-JO0R1gWO4-4" value="" style="endArrow=classic;html=1;rounded=0;exitX=1;exitY=0.5;exitDx=0;exitDy=0;entryX=0;entryY=0.5;entryDx=0;entryDy=0;align=left;spacingLeft=4;" parent="IkYi8OonK2mgzWxCz0yF-14" source="p9_6iBYyMc-JO0R1gWO4-1" target="p9_6iBYyMc-JO0R1gWO4-2" edge="1">
          <mxGeometry width="50" height="50" relative="1" as="geometry">
            <mxPoint x="270" y="35" as="sourcePoint" />
            <mxPoint x="240" y="15" as="targetPoint" />
          </mxGeometry>
        </mxCell>
        <mxCell id="p9_6iBYyMc-JO0R1gWO4-5" value="" style="endArrow=classic;html=1;rounded=0;exitX=1;exitY=0.5;exitDx=0;exitDy=0;entryX=0;entryY=0.5;entryDx=0;entryDy=0;align=left;spacingLeft=4;" parent="IkYi8OonK2mgzWxCz0yF-14" source="p9_6iBYyMc-JO0R1gWO4-1" target="p9_6iBYyMc-JO0R1gWO4-3" edge="1">
          <mxGeometry width="50" height="50" relative="1" as="geometry">
            <mxPoint x="280" y="45" as="sourcePoint" />
            <mxPoint x="300" y="20" as="targetPoint" />
          </mxGeometry>
        </mxCell>
        <mxCell id="6xVnJijO6t7AwcL6DPNy-4" value="" style="group" parent="1" vertex="1" connectable="0">
          <mxGeometry x="80" y="374" width="660" height="201" as="geometry" />
        </mxCell>
        <mxCell id="MiHhUsaI-uD_yKFCWU-2-1" value="interstitial_aero_grav_setl_tend" style="rounded=1;whiteSpace=wrap;html=1;align=left;spacingLeft=4;fillColor=#eeeeee;strokeColor=#36393d;" parent="6xVnJijO6t7AwcL6DPNy-4" vertex="1">
          <mxGeometry y="91" width="190" height="30" as="geometry" />
        </mxCell>
        <mxCell id="MiHhUsaI-uD_yKFCWU-2-3" value="" style="endArrow=classic;html=1;rounded=0;exitX=1;exitY=0.5;exitDx=0;exitDy=0;align=left;spacingLeft=4;entryX=0;entryY=0.5;entryDx=0;entryDy=0;" parent="6xVnJijO6t7AwcL6DPNy-4" source="MiHhUsaI-uD_yKFCWU-2-1" target="MiHhUsaI-uD_yKFCWU-2-4" edge="1">
          <mxGeometry width="50" height="50" relative="1" as="geometry">
            <mxPoint x="190" y="54" as="sourcePoint" />
            <mxPoint x="210" y="21" as="targetPoint" />
          </mxGeometry>
        </mxCell>
        <mxCell id="MiHhUsaI-uD_yKFCWU-2-4" value="modal_aero_gravit_settling_velocity" style="rounded=1;whiteSpace=wrap;html=1;align=left;spacingLeft=4;" parent="6xVnJijO6t7AwcL6DPNy-4" vertex="1">
          <mxGeometry x="241" y="51" width="210" height="20" as="geometry" />
        </mxCell>
        <mxCell id="MiHhUsaI-uD_yKFCWU-2-8" value="&lt;h1&gt;&lt;/h1&gt;&amp;nbsp; &amp;nbsp; &amp;nbsp; &amp;nbsp;&lt;span style=&quot;font-variant-ligatures: no-common-ligatures; color: rgb(193, 101, 28);&quot; class=&quot;s2&quot;&gt;write&lt;/span&gt;&lt;span style=&quot;font-variant-ligatures: no-common-ligatures;&quot; class=&quot;s1&quot;&gt;(str,&lt;/span&gt;&lt;span style=&quot;font-variant-ligatures: no-common-ligatures; color: rgb(180, 36, 25);&quot; class=&quot;s3&quot;&gt;&#39;(i0)&#39;&lt;/span&gt;&lt;span style=&quot;font-variant-ligatures: no-common-ligatures;&quot; class=&quot;s1&quot;&gt;) imode&lt;/span&gt;&lt;br&gt;&lt;span style=&quot;font-variant-ligatures: no-common-ligatures;&quot; class=&quot;s1&quot;&gt;&amp;nbsp;&amp;nbsp; &amp;nbsp; &amp;nbsp; &lt;/span&gt;&lt;span style=&quot;font-variant-ligatures: no-common-ligatures; color: rgb(46, 174, 187);&quot; class=&quot;s4&quot;&gt;call&lt;/span&gt;&lt;span style=&quot;font-variant-ligatures: no-common-ligatures;&quot; class=&quot;s1&quot;&gt; outfld( &lt;/span&gt;&lt;span style=&quot;font-variant-ligatures: no-common-ligatures; color: rgb(180, 36, 25);&quot; class=&quot;s3&quot;&gt;&#39;num_a&#39;&lt;/span&gt;&lt;span style=&quot;font-variant-ligatures: no-common-ligatures; color: rgb(193, 101, 28);&quot; class=&quot;s2&quot;&gt;//&lt;/span&gt;&lt;span style=&quot;font-variant-ligatures: no-common-ligatures; color: rgb(46, 174, 187);&quot; class=&quot;s4&quot;&gt;trim&lt;/span&gt;&lt;span style=&quot;font-variant-ligatures: no-common-ligatures;&quot; class=&quot;s1&quot;&gt;(&lt;/span&gt;&lt;span style=&quot;font-variant-ligatures: no-common-ligatures; color: rgb(46, 174, 187);&quot; class=&quot;s4&quot;&gt;adjustl&lt;/span&gt;&lt;span style=&quot;font-variant-ligatures: no-common-ligatures;&quot; class=&quot;s1&quot;&gt;(str))&lt;/span&gt;&lt;span style=&quot;font-variant-ligatures: no-common-ligatures; color: rgb(193, 101, 28);&quot; class=&quot;s2&quot;&gt;//&lt;/span&gt;&lt;span style=&quot;font-variant-ligatures: no-common-ligatures; color: rgb(180, 36, 25);&quot; class=&quot;s3&quot;&gt;&#39;_GVV&#39;&lt;/span&gt;&lt;span style=&quot;font-variant-ligatures: no-common-ligatures;&quot; class=&quot;s1&quot;&gt;, vlc_grv(:,:,&lt;/span&gt;&lt;span style=&quot;font-variant-ligatures: no-common-ligatures; color: rgb(180, 36, 25);&quot; class=&quot;s3&quot;&gt;1&lt;/span&gt;&lt;span style=&quot;font-variant-ligatures: no-common-ligatures;&quot; class=&quot;s1&quot;&gt;), pcols, lchnk )&lt;/span&gt;&lt;br&gt;&lt;span style=&quot;font-variant-ligatures: no-common-ligatures;&quot; class=&quot;s1&quot;&gt;&amp;nbsp;&amp;nbsp; &amp;nbsp; &amp;nbsp; &lt;/span&gt;&lt;span style=&quot;font-variant-ligatures: no-common-ligatures; color: rgb(46, 174, 187);&quot; class=&quot;s4&quot;&gt;call&lt;/span&gt;&lt;span style=&quot;font-variant-ligatures: no-common-ligatures;&quot; class=&quot;s1&quot;&gt; outfld( &lt;/span&gt;&lt;span style=&quot;font-variant-ligatures: no-common-ligatures; color: rgb(180, 36, 25);&quot; class=&quot;s3&quot;&gt;&#39;mss_a&#39;&lt;/span&gt;&lt;span style=&quot;font-variant-ligatures: no-common-ligatures; color: rgb(193, 101, 28);&quot; class=&quot;s2&quot;&gt;//&lt;/span&gt;&lt;span style=&quot;font-variant-ligatures: no-common-ligatures; color: rgb(46, 174, 187);&quot; class=&quot;s4&quot;&gt;trim&lt;/span&gt;&lt;span style=&quot;font-variant-ligatures: no-common-ligatures;&quot; class=&quot;s1&quot;&gt;(&lt;/span&gt;&lt;span style=&quot;font-variant-ligatures: no-common-ligatures; color: rgb(46, 174, 187);&quot; class=&quot;s4&quot;&gt;adjustl&lt;/span&gt;&lt;span style=&quot;font-variant-ligatures: no-common-ligatures;&quot; class=&quot;s1&quot;&gt;(str))&lt;/span&gt;&lt;span style=&quot;font-variant-ligatures: no-common-ligatures; color: rgb(193, 101, 28);&quot; class=&quot;s2&quot;&gt;//&lt;/span&gt;&lt;span style=&quot;font-variant-ligatures: no-common-ligatures; color: rgb(180, 36, 25);&quot; class=&quot;s3&quot;&gt;&#39;_GVV&#39;&lt;/span&gt;&lt;span style=&quot;font-variant-ligatures: no-common-ligatures;&quot; class=&quot;s1&quot;&gt;, vlc_grv(:,:,&lt;/span&gt;&lt;span style=&quot;font-variant-ligatures: no-common-ligatures; color: rgb(180, 36, 25);&quot; class=&quot;s3&quot;&gt;2&lt;/span&gt;&lt;span style=&quot;font-variant-ligatures: no-common-ligatures;&quot; class=&quot;s1&quot;&gt;), pcols, lchnk )&lt;/span&gt;" style="text;html=1;strokeColor=none;fillColor=none;spacing=5;spacingTop=-20;whiteSpace=wrap;overflow=hidden;rounded=0;" parent="6xVnJijO6t7AwcL6DPNy-4" vertex="1">
          <mxGeometry x="220" y="76" width="440" height="50" as="geometry" />
        </mxCell>
        <mxCell id="MiHhUsaI-uD_yKFCWU-2-9" value="sedimentation_solver_for_1_tracer" style="rounded=1;whiteSpace=wrap;html=1;align=left;spacingLeft=4;" parent="6xVnJijO6t7AwcL6DPNy-4" vertex="1">
          <mxGeometry x="241" y="144" width="200" height="20" as="geometry" />
        </mxCell>
        <mxCell id="MiHhUsaI-uD_yKFCWU-2-13" value="" style="endArrow=classic;html=1;rounded=0;entryX=0;entryY=0.5;entryDx=0;entryDy=0;align=left;spacingLeft=4;exitX=1;exitY=0.75;exitDx=0;exitDy=0;" parent="6xVnJijO6t7AwcL6DPNy-4" source="MiHhUsaI-uD_yKFCWU-2-1" target="MiHhUsaI-uD_yKFCWU-2-9" edge="1">
          <mxGeometry width="50" height="50" relative="1" as="geometry">
            <mxPoint x="190" y="111" as="sourcePoint" />
            <mxPoint x="260" y="121" as="targetPoint" />
          </mxGeometry>
        </mxCell>
        <mxCell id="MiHhUsaI-uD_yKFCWU-2-14" value="physics_update" style="rounded=1;whiteSpace=wrap;html=1;align=left;spacingLeft=4;fillColor=#eeeeee;strokeColor=#36393d;" parent="6xVnJijO6t7AwcL6DPNy-4" vertex="1">
          <mxGeometry y="121" width="100" height="30" as="geometry" />
        </mxCell>
        <mxCell id="J-Whhj7DW3SULGwVJKn7-1" value="pbuf_get_field" style="rounded=1;whiteSpace=wrap;html=1;align=left;spacingLeft=4;" parent="6xVnJijO6t7AwcL6DPNy-4" vertex="1">
          <mxGeometry x="241" width="89" height="20" as="geometry" />
        </mxCell>
        <mxCell id="J-Whhj7DW3SULGwVJKn7-2" value="physics_ptend_init" style="rounded=1;whiteSpace=wrap;html=1;align=left;spacingLeft=4;" parent="6xVnJijO6t7AwcL6DPNy-4" vertex="1">
          <mxGeometry x="241" y="26" width="119" height="20" as="geometry" />
        </mxCell>
        <mxCell id="J-Whhj7DW3SULGwVJKn7-3" value="&amp;nbsp; &amp;nbsp; &amp;nbsp; &amp;nbsp; &amp;nbsp;&amp;nbsp;&lt;span style=&quot;font-variant-ligatures: no-common-ligatures; color: rgb(46, 174, 187);&quot; class=&quot;s2&quot;&gt;call&lt;/span&gt;&lt;span style=&quot;font-variant-ligatures: no-common-ligatures;&quot; class=&quot;s1&quot;&gt; outfld( &lt;/span&gt;&lt;span style=&quot;font-variant-ligatures: no-common-ligatures; color: rgb(46, 174, 187);&quot; class=&quot;s2&quot;&gt;trim&lt;/span&gt;&lt;span style=&quot;font-variant-ligatures: no-common-ligatures;&quot; class=&quot;s1&quot;&gt;(cnst_name(icnst))&lt;/span&gt;&lt;span style=&quot;font-variant-ligatures: no-common-ligatures; color: rgb(193, 101, 28);&quot; class=&quot;s3&quot;&gt;//&lt;/span&gt;&lt;span style=&quot;font-variant-ligatures: no-common-ligatures; color: rgb(180, 36, 25);&quot; class=&quot;s4&quot;&gt;&#39;GVF&#39;&lt;/span&gt;&lt;span style=&quot;font-variant-ligatures: no-common-ligatures;&quot; class=&quot;s1&quot;&gt;,&lt;span class=&quot;Apple-converted-space&quot;&gt;&amp;nbsp; &amp;nbsp; &lt;/span&gt;sflx(:),&lt;span class=&quot;Apple-converted-space&quot;&gt;&amp;nbsp; &amp;nbsp; &amp;nbsp; &lt;/span&gt;pcols, lchnk )&lt;/span&gt;&lt;br&gt;&lt;span style=&quot;font-variant-ligatures: no-common-ligatures;&quot; class=&quot;s1&quot;&gt;&amp;nbsp; &amp;nbsp; &amp;nbsp; &amp;nbsp; &amp;nbsp; &lt;/span&gt;&lt;span style=&quot;font-variant-ligatures: no-common-ligatures; color: rgb(46, 174, 187);&quot; class=&quot;s2&quot;&gt;call&lt;/span&gt;&lt;span style=&quot;font-variant-ligatures: no-common-ligatures;&quot; class=&quot;s1&quot;&gt; outfld( &lt;/span&gt;&lt;span style=&quot;font-variant-ligatures: no-common-ligatures; color: rgb(46, 174, 187);&quot; class=&quot;s2&quot;&gt;trim&lt;/span&gt;&lt;span style=&quot;font-variant-ligatures: no-common-ligatures;&quot; class=&quot;s1&quot;&gt;(cnst_name(icnst))&lt;/span&gt;&lt;span style=&quot;font-variant-ligatures: no-common-ligatures; color: rgb(193, 101, 28);&quot; class=&quot;s3&quot;&gt;//&lt;/span&gt;&lt;span style=&quot;font-variant-ligatures: no-common-ligatures; color: rgb(180, 36, 25);&quot; class=&quot;s4&quot;&gt;&#39;DTQ_GV&#39;&lt;/span&gt;&lt;span style=&quot;font-variant-ligatures: no-common-ligatures;&quot; class=&quot;s1&quot;&gt;, dqdt_tmp(:,:),pcols, lchnk )&lt;/span&gt;" style="text;html=1;strokeColor=none;fillColor=none;align=left;verticalAlign=middle;whiteSpace=wrap;rounded=0;" parent="6xVnJijO6t7AwcL6DPNy-4" vertex="1">
          <mxGeometry x="210" y="171" width="427" height="30" as="geometry" />
        </mxCell>
        <mxCell id="J-Whhj7DW3SULGwVJKn7-5" value="" style="endArrow=classic;html=1;rounded=0;exitX=1;exitY=0.25;exitDx=0;exitDy=0;align=left;spacingLeft=4;entryX=0;entryY=0.25;entryDx=0;entryDy=0;" parent="6xVnJijO6t7AwcL6DPNy-4" source="MiHhUsaI-uD_yKFCWU-2-1" target="J-Whhj7DW3SULGwVJKn7-1" edge="1">
          <mxGeometry width="50" height="50" relative="1" as="geometry">
            <mxPoint x="190" y="111" as="sourcePoint" />
            <mxPoint x="240" y="1" as="targetPoint" />
          </mxGeometry>
        </mxCell>
        <mxCell id="6SAGALRJzCdZziutd28U-1" value="" style="endArrow=classic;html=1;rounded=0;exitX=1;exitY=0.25;exitDx=0;exitDy=0;align=left;spacingLeft=4;entryX=0;entryY=0.5;entryDx=0;entryDy=0;" parent="6xVnJijO6t7AwcL6DPNy-4" source="MiHhUsaI-uD_yKFCWU-2-1" target="J-Whhj7DW3SULGwVJKn7-2" edge="1">
          <mxGeometry width="50" height="50" relative="1" as="geometry">
            <mxPoint x="200" y="109" as="sourcePoint" />
            <mxPoint x="251" y="15" as="targetPoint" />
          </mxGeometry>
        </mxCell>
        <mxCell id="j0fODryRAX1lzSPa2Xor-10" value="microp_aero_run" style="rounded=1;whiteSpace=wrap;html=1;align=left;spacingLeft=4;fillColor=#eeeeee;strokeColor=#36393d;" parent="1" vertex="1">
          <mxGeometry x="138" y="1058" width="110" height="27" as="geometry" />
        </mxCell>
        <mxCell id="j0fODryRAX1lzSPa2Xor-14" value="" style="endArrow=classic;html=1;rounded=0;exitX=1;exitY=0.5;exitDx=0;exitDy=0;" parent="1" source="j0fODryRAX1lzSPa2Xor-10" edge="1">
          <mxGeometry width="50" height="50" relative="1" as="geometry">
            <mxPoint x="433" y="927" as="sourcePoint" />
            <mxPoint x="293" y="1071" as="targetPoint" />
          </mxGeometry>
        </mxCell>
        <mxCell id="KTb0gBNadGF5LZ2oT0yc-4" value="dropmixnuc" style="swimlane;whiteSpace=wrap;html=1;fillColor=#F9FAE1;" parent="1" vertex="1">
          <mxGeometry x="268" y="931" width="502" height="380" as="geometry">
            <mxRectangle x="268" y="931" width="110" height="30" as="alternateBounds" />
          </mxGeometry>
        </mxCell>
        <mxCell id="j0fODryRAX1lzSPa2Xor-12" value="&amp;nbsp; &amp;nbsp;&lt;span style=&quot;font-variant-ligatures: no-common-ligatures; color: rgb(166, 82, 12);&quot; class=&quot;s2&quot;&gt;do&lt;/span&gt;&lt;span style=&quot;font-variant-ligatures: no-common-ligatures;&quot; class=&quot;s1&quot;&gt; m &lt;/span&gt;&lt;span style=&quot;font-variant-ligatures: no-common-ligatures; color: rgb(166, 82, 12);&quot; class=&quot;s2&quot;&gt;=&lt;/span&gt;&lt;span style=&quot;font-variant-ligatures: no-common-ligatures;&quot; class=&quot;s1&quot;&gt; &lt;/span&gt;&lt;span style=&quot;font-variant-ligatures: no-common-ligatures; color: rgb(159, 20, 16);&quot; class=&quot;s3&quot;&gt;1&lt;/span&gt;&lt;span style=&quot;font-variant-ligatures: no-common-ligatures;&quot; class=&quot;s1&quot;&gt;, ntot_amode&lt;/span&gt;&lt;br&gt;&lt;span style=&quot;font-variant-ligatures: no-common-ligatures;&quot; class=&quot;s1&quot;&gt;&amp;nbsp;&amp;nbsp; &lt;/span&gt;&lt;span style=&quot;font-variant-ligatures: no-common-ligatures; color: rgb(166, 82, 12);&quot; class=&quot;s2&quot;&gt;do&lt;/span&gt;&lt;span style=&quot;font-variant-ligatures: no-common-ligatures;&quot; class=&quot;s1&quot;&gt; l &lt;/span&gt;&lt;span style=&quot;font-variant-ligatures: no-common-ligatures; color: rgb(166, 82, 12);&quot; class=&quot;s2&quot;&gt;=&lt;/span&gt;&lt;span style=&quot;font-variant-ligatures: no-common-ligatures;&quot; class=&quot;s1&quot;&gt; &lt;/span&gt;&lt;span style=&quot;font-variant-ligatures: no-common-ligatures; color: rgb(159, 20, 16);&quot; class=&quot;s3&quot;&gt;0&lt;/span&gt;&lt;span style=&quot;font-variant-ligatures: no-common-ligatures;&quot; class=&quot;s1&quot;&gt;, nspec_amode(m)&lt;/span&gt;&lt;br&gt;&lt;span style=&quot;font-variant-ligatures: no-common-ligatures;&quot; class=&quot;s1&quot;&gt;&lt;span class=&quot;Apple-converted-space&quot;&gt;&amp;nbsp; &amp;nbsp; &amp;nbsp; &lt;/span&gt;lptr &lt;/span&gt;&lt;span style=&quot;font-variant-ligatures: no-common-ligatures; color: rgb(166, 82, 12);&quot; class=&quot;s2&quot;&gt;=&lt;/span&gt;&lt;span style=&quot;font-variant-ligatures: no-common-ligatures;&quot; class=&quot;s1&quot;&gt; mam_cnst_idx(m,l)&lt;/span&gt;&lt;br&gt;&lt;span style=&quot;font-variant-ligatures: no-common-ligatures;&quot; class=&quot;s1&quot;&gt;&amp;nbsp; &amp;nbsp; &amp;nbsp; &lt;/span&gt;&lt;span style=&quot;font-variant-ligatures: no-common-ligatures; color: rgb(19, 147, 159);&quot; class=&quot;s4&quot;&gt;call&lt;/span&gt;&lt;span style=&quot;font-variant-ligatures: no-common-ligatures;&quot; class=&quot;s1&quot;&gt; outfld(&lt;/span&gt;&lt;span style=&quot;font-variant-ligatures: no-common-ligatures; color: rgb(19, 147, 159);&quot; class=&quot;s4&quot;&gt;trim&lt;/span&gt;&lt;span style=&quot;font-variant-ligatures: no-common-ligatures;&quot; class=&quot;s1&quot;&gt;(cnst_name(lptr))&lt;/span&gt;&lt;span style=&quot;font-variant-ligatures: no-common-ligatures; color: rgb(166, 82, 12);&quot; class=&quot;s2&quot;&gt;//&lt;/span&gt;&lt;span style=&quot;font-variant-ligatures: no-common-ligatures; color: rgb(159, 20, 16);&quot; class=&quot;s3&quot;&gt;&#39;DTQMX_TB&#39;&lt;/span&gt;&lt;span style=&quot;font-variant-ligatures: no-common-ligatures;&quot; class=&quot;s1&quot;&gt;,&lt;span class=&quot;Apple-converted-space&quot;&gt;&amp;nbsp; &amp;nbsp; &lt;/span&gt;aer_trb_tnd_host(:,lptr), pcols, lchnk)&lt;/span&gt;&lt;br&gt;&lt;span style=&quot;font-variant-ligatures: no-common-ligatures;&quot; class=&quot;s1&quot;&gt;&amp;nbsp; &amp;nbsp; &amp;nbsp; &lt;/span&gt;&lt;span style=&quot;font-variant-ligatures: no-common-ligatures; color: rgb(19, 147, 159);&quot; class=&quot;s4&quot;&gt;call&lt;/span&gt;&lt;span style=&quot;font-variant-ligatures: no-common-ligatures;&quot; class=&quot;s1&quot;&gt; outfld(&lt;/span&gt;&lt;span style=&quot;font-variant-ligatures: no-common-ligatures; color: rgb(19, 147, 159);&quot; class=&quot;s4&quot;&gt;trim&lt;/span&gt;&lt;span style=&quot;font-variant-ligatures: no-common-ligatures;&quot; class=&quot;s1&quot;&gt;(cnst_name(lptr))&lt;/span&gt;&lt;span style=&quot;font-variant-ligatures: no-common-ligatures; color: rgb(166, 82, 12);&quot; class=&quot;s2&quot;&gt;//&lt;/span&gt;&lt;span style=&quot;font-variant-ligatures: no-common-ligatures; color: rgb(159, 20, 16);&quot; class=&quot;s3&quot;&gt;&#39;DTQMX_SF&#39;&lt;/span&gt;&lt;span style=&quot;font-variant-ligatures: no-common-ligatures;&quot; class=&quot;s1&quot;&gt;, &lt;/span&gt;&lt;span style=&quot;font-variant-ligatures: no-common-ligatures; background-color: rgb(224, 228, 9);&quot; class=&quot;s5&quot;&gt;aero_cflx_tend_host&lt;/span&gt;&lt;span style=&quot;font-variant-ligatures: no-common-ligatures;&quot; class=&quot;s1&quot;&gt;(:,lptr), pcols, lchnk)&lt;/span&gt;&lt;br&gt;&lt;span style=&quot;font-variant-ligatures: no-common-ligatures;&quot; class=&quot;s1&quot;&gt;&amp;nbsp; &amp;nbsp; &amp;nbsp; &lt;/span&gt;&lt;span style=&quot;font-variant-ligatures: no-common-ligatures; color: rgb(19, 147, 159);&quot; class=&quot;s4&quot;&gt;call&lt;/span&gt;&lt;span style=&quot;font-variant-ligatures: no-common-ligatures;&quot; class=&quot;s1&quot;&gt; outfld(&lt;/span&gt;&lt;span style=&quot;font-variant-ligatures: no-common-ligatures; color: rgb(19, 147, 159);&quot; class=&quot;s4&quot;&gt;trim&lt;/span&gt;&lt;span style=&quot;font-variant-ligatures: no-common-ligatures;&quot; class=&quot;s1&quot;&gt;(cnst_name(lptr))&lt;/span&gt;&lt;span style=&quot;font-variant-ligatures: no-common-ligatures; color: rgb(166, 82, 12);&quot; class=&quot;s2&quot;&gt;//&lt;/span&gt;&lt;span style=&quot;font-variant-ligatures: no-common-ligatures; color: rgb(159, 20, 16);&quot; class=&quot;s3&quot;&gt;&#39;DTQMX_MN&#39;&lt;/span&gt;&lt;span style=&quot;font-variant-ligatures: no-common-ligatures;&quot; class=&quot;s1&quot;&gt;,&lt;span class=&quot;Apple-converted-space&quot;&gt;&amp;nbsp; &lt;/span&gt;aer_mnu_tnd_host(:,:,lptr), pcols, lchnk)&lt;br&gt;&amp;nbsp; &amp;nbsp;&lt;/span&gt;end do&lt;br&gt;&amp;nbsp; &amp;nbsp;end do" style="text;html=1;strokeColor=none;fillColor=none;align=left;verticalAlign=middle;whiteSpace=wrap;rounded=0;" parent="KTb0gBNadGF5LZ2oT0yc-4" vertex="1">
          <mxGeometry x="8" y="240" width="510" height="130" as="geometry" />
        </mxCell>
        <mxCell id="KTb0gBNadGF5LZ2oT0yc-11" value="" style="group" parent="1" vertex="1" connectable="0">
          <mxGeometry x="305" y="979" width="230" height="164" as="geometry" />
        </mxCell>
        <mxCell id="j0fODryRAX1lzSPa2Xor-13" value="explmix" style="rounded=1;whiteSpace=wrap;html=1;align=left;spacingLeft=4;" parent="KTb0gBNadGF5LZ2oT0yc-11" vertex="1">
          <mxGeometry x="53.5" y="50" width="60" height="20" as="geometry" />
        </mxCell>
        <mxCell id="Q1V148kWglEiilFS4_mz-8" value="do&lt;span style=&quot;font-variant-ligatures: no-common-ligatures;&quot; class=&quot;s2&quot;&gt; n &lt;/span&gt;&lt;span style=&quot;font-variant-ligatures: no-common-ligatures; color: rgb(166, 82, 12);&quot; class=&quot;s1&quot;&gt;=&lt;/span&gt;&lt;span style=&quot;font-variant-ligatures: no-common-ligatures;&quot; class=&quot;s2&quot;&gt; &lt;/span&gt;&lt;span style=&quot;font-variant-ligatures: no-common-ligatures; color: rgb(159, 20, 16);&quot; class=&quot;s3&quot;&gt;1&lt;/span&gt;&lt;span style=&quot;font-variant-ligatures: no-common-ligatures;&quot; class=&quot;s2&quot;&gt;, nsubmix&lt;/span&gt;" style="shape=trapezoid;perimeter=trapezoidPerimeter;whiteSpace=wrap;html=1;fixedSize=1;" parent="KTb0gBNadGF5LZ2oT0yc-11" vertex="1">
          <mxGeometry width="140" height="20" as="geometry" />
        </mxCell>
        <mxCell id="Q1V148kWglEiilFS4_mz-9" value="do&lt;span style=&quot;font-variant-ligatures: no-common-ligatures;&quot; class=&quot;s2&quot;&gt; m &lt;/span&gt;&lt;span style=&quot;font-variant-ligatures: no-common-ligatures; color: rgb(166, 82, 12);&quot; class=&quot;s1&quot;&gt;=&lt;/span&gt;&lt;span style=&quot;font-variant-ligatures: no-common-ligatures;&quot; class=&quot;s2&quot;&gt; &lt;/span&gt;&lt;span style=&quot;font-variant-ligatures: no-common-ligatures; color: rgb(159, 20, 16);&quot; class=&quot;s3&quot;&gt;1&lt;/span&gt;&lt;span style=&quot;font-variant-ligatures: no-common-ligatures;&quot; class=&quot;s2&quot;&gt;, ntot_amode&lt;/span&gt;" style="shape=trapezoid;perimeter=trapezoidPerimeter;whiteSpace=wrap;html=1;fixedSize=1;size=10;" parent="KTb0gBNadGF5LZ2oT0yc-11" vertex="1">
          <mxGeometry x="30" y="24" width="170" height="20" as="geometry" />
        </mxCell>
        <mxCell id="KTb0gBNadGF5LZ2oT0yc-1" value="do&lt;span style=&quot;font-variant-ligatures: no-common-ligatures;&quot; class=&quot;s2&quot;&gt; l &lt;/span&gt;&lt;span style=&quot;font-variant-ligatures: no-common-ligatures; color: rgb(166, 82, 12);&quot; class=&quot;s1&quot;&gt;=&lt;/span&gt;&lt;span style=&quot;font-variant-ligatures: no-common-ligatures;&quot; class=&quot;s2&quot;&gt; &lt;/span&gt;&lt;span style=&quot;font-variant-ligatures: no-common-ligatures; color: rgb(159, 20, 16);&quot; class=&quot;s3&quot;&gt;1&lt;/span&gt;&lt;span style=&quot;font-variant-ligatures: no-common-ligatures;&quot; class=&quot;s2&quot;&gt;, nspec_amode(m)&lt;/span&gt;" style="shape=trapezoid;perimeter=trapezoidPerimeter;whiteSpace=wrap;html=1;fixedSize=1;size=10;" parent="KTb0gBNadGF5LZ2oT0yc-11" vertex="1">
          <mxGeometry x="60" y="94" width="170" height="20" as="geometry" />
        </mxCell>
        <mxCell id="KTb0gBNadGF5LZ2oT0yc-2" value="explmix" style="rounded=1;whiteSpace=wrap;html=1;align=left;spacingLeft=4;" parent="KTb0gBNadGF5LZ2oT0yc-11" vertex="1">
          <mxGeometry x="70" y="119" width="60" height="20" as="geometry" />
        </mxCell>
        <mxCell id="KTb0gBNadGF5LZ2oT0yc-8" value="" style="endArrow=none;html=1;rounded=0;" parent="KTb0gBNadGF5LZ2oT0yc-11" edge="1">
          <mxGeometry width="50" height="50" relative="1" as="geometry">
            <mxPoint x="130" y="144" as="sourcePoint" />
            <mxPoint x="60" y="114" as="targetPoint" />
            <Array as="points">
              <mxPoint x="60" y="144" />
            </Array>
          </mxGeometry>
        </mxCell>
        <mxCell id="KTb0gBNadGF5LZ2oT0yc-9" value="" style="endArrow=none;html=1;rounded=0;" parent="KTb0gBNadGF5LZ2oT0yc-11" edge="1">
          <mxGeometry width="50" height="50" relative="1" as="geometry">
            <mxPoint x="150" y="154" as="sourcePoint" />
            <mxPoint x="30" y="44" as="targetPoint" />
            <Array as="points">
              <mxPoint x="30" y="154" />
            </Array>
          </mxGeometry>
        </mxCell>
        <mxCell id="KTb0gBNadGF5LZ2oT0yc-10" value="" style="endArrow=none;html=1;rounded=0;entryX=0;entryY=1;entryDx=0;entryDy=0;" parent="KTb0gBNadGF5LZ2oT0yc-11" target="Q1V148kWglEiilFS4_mz-8" edge="1">
          <mxGeometry width="50" height="50" relative="1" as="geometry">
            <mxPoint x="160" y="164" as="sourcePoint" />
            <mxPoint x="40" y="54" as="targetPoint" />
            <Array as="points">
              <mxPoint y="164" />
            </Array>
          </mxGeometry>
        </mxCell>
        <mxCell id="6xVnJijO6t7AwcL6DPNy-6" value="tphysac" style="swimlane;horizontal=0;whiteSpace=wrap;html=1;fillColor=#e1d5e7;strokeColor=#9673a6;strokeWidth=2;" parent="1" vertex="1">
          <mxGeometry x="13" y="660" width="807" height="890" as="geometry">
            <mxRectangle x="12" y="96" width="40" height="80" as="alternateBounds" />
          </mxGeometry>
        </mxCell>
        <mxCell id="BnDC3b845oGrN34__8h5-1" value="end do ! macmic_it&amp;nbsp;&lt;span style=&quot;border-color: var(--border-color); font-variant-ligatures: no-common-ligatures; color: rgb(166, 82, 12);&quot; class=&quot;s1&quot;&gt;=&lt;/span&gt;&lt;span style=&quot;border-color: var(--border-color); font-variant-ligatures: no-common-ligatures;&quot; class=&quot;s2&quot;&gt;&amp;nbsp;&lt;/span&gt;&lt;span style=&quot;border-color: var(--border-color); font-variant-ligatures: no-common-ligatures; color: rgb(159, 20, 16);&quot; class=&quot;s3&quot;&gt;1&lt;/span&gt;&lt;span style=&quot;border-color: var(--border-color); font-variant-ligatures: no-common-ligatures;&quot; class=&quot;s2&quot;&gt;, cld_macmic_num_steps&lt;/span&gt;" style="text;html=1;strokeColor=none;fillColor=none;align=center;verticalAlign=middle;whiteSpace=wrap;rounded=0;" vertex="1" parent="6xVnJijO6t7AwcL6DPNy-6">
          <mxGeometry x="57" y="745" width="308" height="30" as="geometry" />
        </mxCell>
      </root>
    </mxGraphModel>
  </diagram>
</mxfile>
